<?xml version="1.0" encoding="UTF-8"?>
<svg width="15px" height="15px" viewBox="0 0 15 15" version="1.1" xmlns="http://www.w3.org/2000/svg" xmlns:xlink="http://www.w3.org/1999/xlink">
    <!-- Generator: Sketch 52.4 (67378) - http://www.bohemiancoding.com/sketch -->
    <title>热点分析current</title>
    <desc>Created with Sketch.</desc>
    <g id="组件" stroke="none" stroke-width="1" fill="none" fill-rule="evenodd">
        <g id="热点分析-底部标签栏" transform="translate(-230.000000, -10.000000)" fill-rule="nonzero">
            <g id="首页-底部标签栏">
                <g id="热点分析current" transform="translate(230.000000, 10.000000)">
                    <path d="M7.22558844,14.0928882 C5.5284316,14.0928882 3.93439758,13.4071118 2.73362852,12.1625544 C1.53460732,10.9179971 0.873922163,9.26161103 0.873922163,7.5 C0.873922163,5.73838897 1.53460732,4.08381713 2.73362852,2.83744557 C3.93264973,1.59288824 5.5284316,0.907111756 7.22558844,0.907111756 C8.92274528,0.907111756 10.5167793,1.59288824 11.7175484,2.83744557 C12.9165696,4.0820029 13.5772547,5.73838897 13.5772547,7.5 C13.5772547,7.9934688 13.5248194,8.48330914 13.4199487,8.96044993 C13.3412957,8.94956459 13.2608949,8.94412192 13.1804941,8.94412192 C12.1789793,8.94412192 11.362736,9.7913643 11.362736,10.8309144 C11.362736,11.3026125 11.530529,11.7343977 11.8066884,12.0645864 C10.6111629,13.3599419 8.96644139,14.0928882 7.22558844,14.0928882 Z M14.2414356,9.29970972 C14.3812631,8.71371553 14.4511769,8.1095791 14.4511769,7.5 C14.4511769,6.48766328 14.2606619,5.50616836 13.8831275,4.58091437 C13.5195759,3.6883164 12.9987182,2.88642961 12.3345374,2.19702467 C11.6703566,1.50761974 10.8978094,0.966981132 10.03787,0.589622642 C9.14646935,0.197750363 8.20088557,0 7.22558844,0 C6.25029131,0 5.30470753,0.197750363 4.41330692,0.589622642 C3.55336751,0.966981132 2.78082032,1.50761974 2.11663948,2.19702467 C1.45245863,2.88642961 0.931601025,3.6883164 0.568049406,4.58091437 C0.190515031,5.50616836 0,6.48766328 0,7.5 C0,8.51233672 0.190515031,9.49383164 0.568049406,10.4190856 C0.931601025,11.3116836 1.45245863,12.1135704 2.11663948,12.8029753 C2.78082032,13.4923803 3.55336751,14.0330189 4.41330692,14.4103774 C5.30470753,14.8022496 6.25029131,15 7.22558844,15 C9.25308786,15 11.1634817,14.1273585 12.530296,12.5925254 C12.7330459,12.6741655 12.9515265,12.7177068 13.1822419,12.7177068 C14.1837567,12.7177068 15,11.8704644 15,10.8309144 C14.9982522,10.2013788 14.6993708,9.64259797 14.2414356,9.29970972 Z" id="形状" fill="#FFFFFF"></path>
                    <path d="M7.5,4 C9.42955083,4 11,5.57044917 11,7.5 C11,9.42955083 9.42955083,11 7.5,11 C5.57044917,11 4,9.42955083 4,7.5 C4,5.57044917 5.57044917,4 7.5,4 Z" id="形状" fill="#F18D00"></path>
                    <path d="M13.1804941,11.8105951 C12.6596364,11.8105951 12.2366581,11.371553 12.2366581,10.8309144 C12.2366581,10.2902758 12.6596364,9.85123367 13.1804941,9.85123367 C13.7013517,9.85123367 14.12433,10.2902758 14.12433,10.8309144 C14.12433,11.371553 13.7013517,11.8105951 13.1804941,11.8105951 Z" id="路径" fill="#F18D00"></path>
                </g>
            </g>
        </g>
    </g>
</svg>