<?xml version="1.0" encoding="UTF-8"?>
<svg width="15px" height="14px" viewBox="0 0 15 14" version="1.1" xmlns="http://www.w3.org/2000/svg" xmlns:xlink="http://www.w3.org/1999/xlink">
    <!-- Generator: Sketch 52.4 (67378) - http://www.bohemiancoding.com/sketch -->
    <title>大数据解读</title>
    <desc>Created with Sketch.</desc>
    <g id="组件" stroke="none" stroke-width="1" fill="none" fill-rule="evenodd">
        <g id="首页-底部标签栏" transform="translate(-142.000000, -11.000000)">
            <g id="大数据解读">
                <g transform="translate(142.000000, 9.000000)">
                    <rect id="矩形" fill="#000000" opacity="0" x="0" y="0" width="16" height="18"></rect>
                    <path d="M14.4909502,16 L0.509049774,16 C0.237556556,16 0,15.7666667 0,15.5 C0,15.2333333 0.237556556,15 0.509049774,15 L14.4909502,15 C14.7624434,15 15,15.2333333 15,15.5 C15,15.7666667 14.7624434,16 14.4909502,16 Z" id="路径" fill="#8F9DBA"></path>
                    <path d="M2.34162896,12 L1.66289592,12 C0.74660633,12 0,11.2028986 0,10.2246377 L0,7.2173913 C-1.13031756e-16,6.23913043 0.74660633,5.44202899 1.66289592,5.44202899 L2.34162896,5.44202899 C3.25791855,5.44202899 4.00452488,6.23913043 4.00452488,7.2173913 L4.00452488,10.2246377 C4.00452488,11.2028986 3.25791855,12 2.34162896,12 Z M7.73755656,12 L7.05882353,12 C6.14253393,12 5.3959276,11.2028986 5.3959276,10.2246377 L5.3959276,3.77536233 C5.3959276,2.79710146 6.14253393,2.00000002 7.05882353,2 L7.73755656,2 C8.65384616,2 9.40045249,2.79710144 9.40045249,3.77536233 L9.40045249,10.2246377 C9.40045249,11.2028986 8.65384616,12 7.73755656,12 Z M13.3371041,12 L12.658371,12 C11.7420814,12 10.9954751,11.2028986 10.9954751,10.2246377 L10.9954751,6.02173913 C10.9954751,5.04347826 11.7420814,4.24637682 12.658371,4.24637682 L13.3371041,4.24637682 C14.2533937,4.24637682 15,5.04347826 15,6.02173913 L15,10.2246377 C15,11.2028986 14.2533937,12 13.3371041,12 Z" id="形状" fill="#8F9DBA" fill-rule="nonzero"></path>
                </g>
            </g>
        </g>
    </g>
</svg>