<?xml version="1.0" encoding="UTF-8"?>
<svg width="13px" height="14px" viewBox="0 0 13 14" version="1.1" xmlns="http://www.w3.org/2000/svg" xmlns:xlink="http://www.w3.org/1999/xlink">
    <!-- Generator: Sketch 52.4 (67378) - http://www.bohemiancoding.com/sketch -->
    <title>积分面</title>
    <desc>Created with Sketch.</desc>
    <defs>
        <linearGradient x1="0%" y1="0%" x2="100%" y2="0%" id="linearGradient-1">
            <stop stop-color="#F9C100" offset="0%"></stop>
            <stop stop-color="#F18D00" offset="100%"></stop>
        </linearGradient>
    </defs>
    <g id="页面-1" stroke="none" stroke-width="1" fill="none" fill-rule="evenodd">
        <g id="6我" transform="translate(-31.000000, -224.000000)" fill="url(#linearGradient-1)" fill-rule="nonzero">
            <g id="1" transform="translate(0.000000, 204.000000)">
                <g id="积分面" transform="translate(31.000000, 20.000000)">
                    <path d="M1.75669103e-15,2 C1.75669103e-15,2.7145274 1.04828254,3.37478852 2.75,3.73205222 C4.4516998,4.08931593 6.54828254,4.08931593 8.25,3.73205222 C9.9516998,3.37478852 11,2.7145274 11,2 C11,0.895425671 8.53758412,0 5.50001766,0 C2.4624512,0 0,0.895425671 1.75669103e-15,2 Z M7.50429281,6.85149166 C8.29132054,6.26266314 9.14563065,5.78837133 10.6407262,5.73814073 C10.8977202,5.5300694 10.9810834,5.32252825 11,5.00000571 L11,3.05542982 C10.9231537,4.21011796 8.50218564,5.14310392 5.51440759,5.14310392 C2.52662954,5.14310392 0,4.1823945 0,3 L0,4.84750102 C0,6.03914808 2.45938239,6.9998404 5.48559241,6.9998404 C6.28183184,7.0023887 6.84557717,6.97534935 7.50429281,6.85149166 Z M0,6 L0,7.85185058 C0,9.03702878 2.1814475,10 4.86566542,10 L5.22023872,10 C5.26398234,9.34935628 5.58518549,8.66375808 6,8.10506917 C5.58398254,8.15425231 5.28412002,8.18500677 4.8656498,8.1851782 C2.1814475,8.18516106 -1.56227217e-05,7.22218984 0,6 Z M5.27326278,11.1481491 C2.3549499,11.1481491 0,10.2222151 0,9 L0,10.8518509 C0,12.0370437 2.36418314,13 5.27324587,13 L6,13 C5.69807641,12.4609031 5.60565945,11.8619904 5.60565945,11.1481491 L5.27326278,11.1481491 Z M11.9748704,8.02504742 C10.6081557,6.65827952 8.3920255,6.65827952 7.0250991,8.02527548 C5.65815641,9.39225515 5.65836818,11.6079892 7.02532716,12.9747245 C8.39225356,14.3416879 10.6081557,14.3416879 11.9748866,12.9751481 C13.3416176,11.6086082 13.3417968,9.39202709 11.9748704,8.02504742 Z M10.5904154,11.5903998 C10.1173485,12.063508 9.74250265,12.5578231 9.5,13 C9.25749735,12.5578231 8.88265147,12.0634863 8.40958463,11.5903998 C7.93649608,11.1173567 7.44217879,10.7424907 7,10.5000109 C7.44217879,10.2574876 7.93651779,9.88264329 8.40958463,9.40960022 C8.88265147,8.93653543 9.25749735,8.44217687 9.5,8 C9.74250265,8.44217687 10.1173485,8.93653543 10.5904154,9.40960022 C11.0634822,9.88264329 11.5578429,10.2575093 12,10.5000109 C11.5581251,10.7424907 11.0634822,11.1176389 10.5904154,11.5903998 Z" id="形状"></path>
                </g>
            </g>
        </g>
    </g>
</svg>