<?xml version="1.0" encoding="UTF-8"?>
<svg width="15px" height="16px" viewBox="0 0 15 16" version="1.1" xmlns="http://www.w3.org/2000/svg" xmlns:xlink="http://www.w3.org/1999/xlink">
    <!-- Generator: Sketch 52.4 (67378) - http://www.bohemiancoding.com/sketch -->
    <title>订单面</title>
    <desc>Created with Sketch.</desc>
    <defs>
        <linearGradient x1="50%" y1="4.04850072%" x2="50%" y2="100%" id="linearGradient-1">
            <stop stop-color="#7FE7FF" offset="0%"></stop>
            <stop stop-color="#3FCBAD" offset="100%"></stop>
        </linearGradient>
    </defs>
    <g id="页面-1" stroke="none" stroke-width="1" fill="none" fill-rule="evenodd">
        <g id="6我" transform="translate(-30.000000, -372.000000)" fill="url(#linearGradient-1)" fill-rule="nonzero">
            <g id="1" transform="translate(0.000000, 204.000000)">
                <g id="订单面" transform="translate(30.000000, 168.000000)">
                    <path d="M12.962514,1.50098597 L10.5647703,1.50098597 C10.4514911,1.01010932 9.99837415,0.632511866 9.46973772,0.632511867 L8.28030581,0.632511867 C8.12926684,0.254914416 7.77054926,0.00947611212 7.35519207,0.00947611182 C6.93983489,0.00947611152 6.58111735,0.254914457 6.43007837,0.632511867 L5.2217666,0.632511867 C4.69313018,0.632511867 4.24001326,1.01010932 4.12673402,1.50098597 L1.72899033,1.50098597 C1.10595458,1.50098597 0.633957755,2.01074252 0.633957755,2.63377828 L0.633957755,14.8301754 C0.633957755,15.4532112 1.1248344,15.9629677 1.72899033,15.9629677 L12.9436341,15.9629677 C13.5666699,15.9629677 14.0953063,15.4532112 14.0953063,14.8301754 L14.0953063,2.63377828 C14.1141862,2.01074252 13.5855497,1.50098597 12.962514,1.50098597 Z M7.37407198,2.04850226 C7.88382854,2.04850226 8.28030581,2.46385944 8.28030581,2.95473609 C8.28030581,3.46449264 7.86494863,3.86096992 7.37407198,3.86096996 C6.86431542,3.86096996 6.46783815,3.44561278 6.46783811,2.95473609 C6.46783806,2.4638594 6.86431542,2.04850226 7.37407198,2.04850226 Z M10.8290885,11.4317985 C10.8290885,11.658357 10.6402898,11.8471557 10.4137313,11.8471557 L4.33441263,11.8471557 C4.10785415,11.8471557 3.91905545,11.658357 3.91905545,11.4317985 L3.91905545,11.0542011 C3.91905545,10.8276426 4.10785415,10.6388439 4.33441263,10.6388439 L10.4137313,10.6388439 C10.6402898,10.6388439 10.8290885,10.8276426 10.8290885,11.0542011 L10.8290885,11.4317985 Z M10.8290885,7.59918453 C10.8290885,7.82574301 10.6402898,8.01454171 10.4137313,8.01454171 L4.33441263,8.01454171 C4.10785415,8.01454171 3.91905545,7.82574301 3.91905545,7.59918453 L3.91905545,7.22158712 C3.91905545,6.99502864 4.10785415,6.80622994 4.33441263,6.80622994 L10.4137313,6.80622994 C10.6402898,6.80622994 10.8290885,6.99502864 10.8290885,7.22158712 L10.8290885,7.59918453 Z" id="形状"></path>
                </g>
            </g>
        </g>
    </g>
</svg>