<?xml version="1.0" encoding="utf-8"?>
<!-- Generator: Adobe Illustrator 16.0.0, SVG Export Plug-In . SVG Version: 6.00 Build 0)  -->
<!DOCTYPE svg PUBLIC "-//W3C//DTD SVG 1.1//EN" "http://www.w3.org/Graphics/SVG/1.1/DTD/svg11.dtd">
<svg version="1.1" id="形状_20_拷贝_1_" xmlns="http://www.w3.org/2000/svg" xmlns:xlink="http://www.w3.org/1999/xlink"
	 x="0px" y="0px" width="146.982px" height="19.498px" viewBox="0 0 146.982 19.498" enable-background="new 0 0 146.982 19.498"
	 xml:space="preserve">
<g id="形状_20_拷贝">
	<g>
		<path fill="#B9A7AF" d="M0.01,19.502h3.874V7.754H0.01V19.502z M6.825,19.502h3.874V-0.009H6.825V19.502z M13.639,19.502h3.874
			V6.285h-3.874V19.502z M20.453,19.502h3.874V7.754h-3.874V19.502z M27.267,19.502h3.874v-8.603h-3.874V19.502z M34.081,19.502
			h3.874V7.754h-3.874V19.502z M40.895,19.502h3.874V9.561h-3.874V19.502z M47.708,19.502h3.874V7.754h-3.874V19.502z
			 M54.522,19.502h3.874V2.299h-3.874V19.502z M61.336,19.502h3.874V7.754h-3.874V19.502z M68.15,19.502h3.874V9.561H68.15V19.502z
			 M74.964,19.502h3.874V2.299h-3.874V19.502z M81.778,19.502h3.874V-0.009h-3.874V19.502z M88.592,19.502h3.874V2.299h-3.874
			V19.502z M95.406,19.502h3.875V6.285h-3.875V19.502z M102.22,19.502h3.873V7.754h-3.873V19.502z M109.034,19.502h3.874v-8.603
			h-3.874V19.502z M115.848,19.502h3.874v-8.603h-3.874V19.502z M122.662,19.502h3.874V9.561h-3.874V19.502z M129.476,19.502h3.874
			v-8.603h-3.874V19.502z M136.29,19.502h3.874v-7.763h-3.874V19.502z M143.104,7.754v11.748h3.874V7.754H143.104z"/>
	</g>
</g>
</svg>
