<?xml version="1.0" encoding="utf-8"?>
<!-- Generator: Adobe Illustrator 16.0.0, SVG Export Plug-In . SVG Version: 6.00 Build 0)  -->
<!DOCTYPE svg PUBLIC "-//W3C//DTD SVG 1.1//EN" "http://www.w3.org/Graphics/SVG/1.1/DTD/svg11.dtd">
<svg version="1.1" id="形状_18_1_" xmlns="http://www.w3.org/2000/svg" xmlns:xlink="http://www.w3.org/1999/xlink" x="0px"
	 y="0px" width="80.99px" height="80.99px" viewBox="0 0 80.99 80.99" enable-background="new 0 0 80.99 80.99"
	 xml:space="preserve">
<path fill="#B9A7AF" d="M15.81,12.477l-2.143-2.369c-0.245,0.214-0.483,0.434-0.722,0.653l2.143,2.37
	C15.326,12.911,15.565,12.691,15.81,12.477z M31.91,4.213l-0.776-3.094c-0.317,0.074-0.629,0.16-0.944,0.242l0.775,3.094
	C31.279,4.373,31.592,4.287,31.91,4.213z M23.344,7.352l-1.505-2.818c-0.289,0.148-0.587,0.28-0.872,0.435l1.507,2.82
	C22.758,7.634,23.055,7.5,23.344,7.352z M40.981,3.216V0.023c-0.164-0.002-0.323-0.025-0.488-0.025
	c-0.164,0-0.323,0.023-0.487,0.025v3.192c0.164-0.002,0.323-0.025,0.487-0.025C40.658,3.191,40.817,3.214,40.981,3.216z
	 M5.481,27.292l-3.01-1.09c-0.115,0.302-0.228,0.606-0.335,0.912l3.01,1.091C5.254,27.898,5.367,27.594,5.481,27.292z M9.718,19.243
	L7.06,17.458c-0.186,0.266-0.368,0.534-0.547,0.805l2.659,1.785C9.35,19.777,9.532,19.509,9.718,19.243z M3.302,36.115l-3.189-0.333
	c-0.038,0.322-0.078,0.643-0.108,0.966l3.189,0.334C3.224,36.757,3.264,36.438,3.302,36.115z M49.422,1.009
	c-0.315-0.071-0.628-0.157-0.948-0.22l-0.666,3.123c0.319,0.064,0.631,0.147,0.948,0.218L49.422,1.009z M78.028,24.874l-2.973,1.196
	c0.125,0.297,0.219,0.611,0.336,0.912l2.973-1.195C78.246,25.485,78.153,25.172,78.028,24.874z M73.664,17.105
	c-0.188-0.265-0.392-0.52-0.585-0.779l-2.592,1.875c0.195,0.26,0.396,0.514,0.584,0.779L73.664,17.105z M58.749,4.342
	c-0.29-0.146-0.585-0.283-0.879-0.421l-1.404,2.867c0.294,0.138,0.59,0.275,0.879,0.421L58.749,4.342z M66.994,9.811
	c-0.247-0.211-0.479-0.438-0.729-0.643l-2.063,2.447c0.251,0.205,0.484,0.429,0.73,0.641L66.994,9.811z M77.638,35.789l3.172-0.444
	c-0.041-0.322-0.1-0.64-0.146-0.959L77.49,34.83C77.539,35.149,77.597,35.466,77.638,35.789z M65.179,68.515l2.146,2.368
	c0.241-0.214,0.481-0.434,0.722-0.653l-2.146-2.369C65.662,68.08,65.423,68.3,65.179,68.515z M71.271,61.747l2.658,1.786
	c0.188-0.267,0.368-0.535,0.547-0.806l-2.658-1.785C71.638,61.214,71.456,61.479,71.271,61.747z M3.352,45.202L0.18,45.646
	c0.041,0.322,0.099,0.642,0.147,0.959l3.172-0.441C3.449,45.841,3.392,45.524,3.352,45.202z M49.078,76.776l0.774,3.096
	c0.316-0.075,0.629-0.161,0.943-0.242l-0.773-3.095C49.708,76.618,49.396,76.703,49.078,76.776z M75.507,53.699l3.01,1.09
	c0.114-0.304,0.229-0.604,0.336-0.912l-3.011-1.091C75.733,53.093,75.621,53.396,75.507,53.699z M77.793,43.908
	c-0.028,0.325-0.067,0.646-0.106,0.967l3.188,0.334c0.038-0.321,0.078-0.644,0.108-0.967L77.793,43.908z M57.646,73.64l1.504,2.816
	c0.289-0.148,0.586-0.279,0.871-0.436l-1.506-2.819C58.229,73.356,57.933,73.49,57.646,73.64z M7.324,63.885
	c0.189,0.267,0.39,0.521,0.585,0.779L10.5,62.79c-0.195-0.26-0.396-0.514-0.585-0.779L7.324,63.885z M2.624,55.204
	c0.118,0.301,0.21,0.615,0.335,0.912l2.972-1.195c-0.126-0.297-0.218-0.611-0.336-0.913L2.624,55.204z M13.995,71.181
	c0.247,0.211,0.478,0.438,0.729,0.645l2.063-2.447c-0.252-0.204-0.485-0.429-0.731-0.643L13.995,71.181z M40.007,77.774v3.19
	c0.164,0.002,0.323,0.024,0.487,0.024c0.165,0,0.324-0.022,0.488-0.024v-3.19c-0.164,0.002-0.323,0.022-0.488,0.022
	C40.33,77.799,40.171,77.776,40.007,77.774z M31.565,79.981c0.318,0.069,0.629,0.156,0.949,0.221l0.667-3.124
	c-0.32-0.063-0.632-0.147-0.95-0.22L31.565,79.981z M22.239,76.647c0.29,0.146,0.585,0.283,0.879,0.422l1.405-2.866
	c-0.294-0.138-0.589-0.274-0.879-0.422L22.239,76.647z M40.13,6.007c-19.266,0-34.885,15.607-34.885,34.86
	s15.619,34.86,34.885,34.86c19.268,0,34.887-15.607,34.887-34.86S59.396,6.007,40.13,6.007z M40.13,73.146
	c-17.839,0-32.3-14.451-32.3-32.276c0-17.827,14.461-32.277,32.3-32.277c17.84,0,32.301,14.451,32.301,32.277
	C72.431,58.692,57.97,73.146,40.13,73.146z"/>
</svg>
