<?xml version="1.0" standalone="no"?><!DOCTYPE svg PUBLIC "-//W3C//DTD SVG 1.1//EN" "http://www.w3.org/Graphics/SVG/1.1/DTD/svg11.dtd"><svg t="1526537180167" class="icon" style="" viewBox="0 0 1024 1024" version="1.1" xmlns="http://www.w3.org/2000/svg" p-id="5918" xmlns:xlink="http://www.w3.org/1999/xlink" width="200" height="200"><defs><style type="text/css"></style></defs><path d="M448.33792 13.64992h-318.4128l224.128 438.77888h318.42304z" fill="#3C8BFF" p-id="5919"></path><path d="M575.66208 13.64992L351.52384 452.4288h318.42816l224.128-438.77888z" fill="#70AAFE" p-id="5920"></path><path d="M512 235.8784c-213.88288 0-387.23584 173.36832-387.23584 387.2512 0 213.86752 173.34784 387.22048 387.23584 387.22048 213.86752 0 387.24096-173.34784 387.24096-387.22048 0-213.87776-173.37344-387.2512-387.24096-387.2512z m0 707.92192c-177.1264 0-320.68608-143.54944-320.68608-320.67072 0-177.1264 143.55968-320.70144 320.68608-320.70144 177.11104 0 320.67072 143.57504 320.67072 320.70144 0 177.12128-143.55968 320.67072-320.67072 320.67072z" fill="#FFD231" p-id="5921"></path><path d="M512 302.42816c-177.1264 0-320.68608 143.57504-320.68608 320.70144 0 177.12128 143.55968 320.67072 320.68608 320.67072 177.11104 0 320.67072-143.54944 320.67072-320.67072 0-177.1264-143.55968-320.70144-320.67072-320.70144z m0 592.9728c-150.39488 0-272.2816-121.89184-272.2816-272.27136 0-150.39488 121.88672-272.29696 272.2816-272.29696 150.4 0 272.26112 121.90208 272.26112 272.29696 0 150.37952-121.86112 272.27136-272.26112 272.27136z" fill="#FF8206" p-id="5922"></path><path d="M512 350.83264c-150.39488 0-272.2816 121.90208-272.2816 272.29696 0 150.37952 121.88672 272.27136 272.2816 272.27136 150.4 0 272.26112-121.89184 272.26112-272.27136 0-150.39488-121.86112-272.29696-272.26112-272.29696z m42.12224 432.10752H502.62016V545.7408c-19.77344 14.58176-47.35488 29.13792-82.70848 43.68896v-49.93024c52.01408-21.85216 83.73248-50.45248 95.19616-85.8368h39.0144v329.27744z" fill="#FFBC00" p-id="5923"></path></svg>