<?xml version="1.0" standalone="no"?><!DOCTYPE svg PUBLIC "-//W3C//DTD SVG 1.1//EN" "http://www.w3.org/Graphics/SVG/1.1/DTD/svg11.dtd"><svg t="1526537146996" class="icon" style="" viewBox="0 0 1024 1024" version="1.1" xmlns="http://www.w3.org/2000/svg" p-id="5662" xmlns:xlink="http://www.w3.org/1999/xlink" width="200" height="200"><defs><style type="text/css"></style></defs><path d="M448.3328 16.49152H129.92512L354.05312 455.2704h318.41792z" fill="#036EB8" p-id="5663"></path><path d="M460.34944 39.15776L301.13792 350.83264 354.05312 455.2704h254.48448l31.96928-62.57664z" fill="#044DA5" p-id="5664"></path><path d="M575.66208 16.49152L351.52384 455.2704h318.42816l224.128-438.77888z" fill="#3C8BFF" p-id="5665"></path><path d="M899.23584 623.1296c0 213.86752-173.36832 387.22048-387.2512 387.22048-213.888 0-387.22048-173.34784-387.22048-387.22048 0-213.88288 173.33248-387.2512 387.22048-387.2512 213.88288 0 387.2512 173.36832 387.2512 387.2512z" fill="#F6C3A6" p-id="5666"></path><path d="M832.68608 623.1296c0 177.12128-143.55968 320.67072-320.68096 320.67072-177.13152 0-320.71168-143.54944-320.71168-320.67072s143.58016-320.70144 320.71168-320.70144c177.12128 0 320.68096 143.58016 320.68096 320.70144z" fill="#C27550" p-id="5667"></path><path d="M784.28672 623.1296c0 150.37952-121.90208 272.27136-272.2816 272.27136-150.4 0-272.30208-121.89184-272.30208-272.27136 0-150.39488 121.90208-272.29184 272.30208-272.29184 150.37952 0 272.2816 121.90208 272.2816 272.29184z" fill="#F6C3A6" p-id="5668"></path><path d="M397.2864 700.2368l53.05856-12.48256c4.15232 36.4288 23.40864 55.15776 57.73824 56.18688 42.6496 1.04448 63.45216-18.19136 62.42816-57.74336-3.11808-31.21152-23.95136-47.32416-62.42816-48.37376h-39.00928v-45.25568h26.53184c39.53152 0 60.32896-16.62976 62.41792-49.94048-1.0496-27.04384-16.65024-41.088-46.81216-42.13248-30.18752 2.09408-48.37888 19.26144-54.62016 51.50208l-53.05856-12.48256c14.55104-56.18176 49.93024-84.7872 106.112-85.83168 66.57024 1.0496 100.91008 31.21152 102.99904 90.51136 0 31.21152-17.16224 53.59616-51.50208 67.10272 41.6 16.65536 62.94016 42.67008 63.98976 78.0288-4.16768 62.41792-42.1376 95.19616-113.92 98.31424-64.51712-1.05984-102.48704-30.17728-113.92512-87.40352z" fill="#C27550" p-id="5669"></path></svg>