<?xml version="1.0" encoding="UTF-8"?>
<svg width="28px" height="29px" viewBox="0 0 28 29" version="1.1" xmlns="http://www.w3.org/2000/svg" xmlns:xlink="http://www.w3.org/1999/xlink">
    <!-- Generator: Sketch 52.4 (67378) - http://www.bohemiancoding.com/sketch -->
    <title>峰值@3x</title>
    <desc>Created with Sketch.</desc>
    <g id="页面-1" stroke="none" stroke-width="1" fill="none" fill-rule="evenodd">
        <g id="热点发现-重大事件" transform="translate(-1931.000000, -615.000000)">
            <g id="5" transform="translate(1931.000000, 574.000000)">
                <g id="峰值" transform="translate(0.000000, 41.000000)">
                    <path d="M0,17.7939509 L2.84960422,17.7939509 L2.84960422,29 L0,29 L0,17.7939509 Z M8.05013193,14.2022684 L10.8997361,14.2022684 L10.8997361,29 L8.05013193,29 L8.05013193,14.2022684 Z M16.1002639,16.3931947 L18.9498681,16.3931947 L18.9498681,28.9640832 L16.1002639,28.9640832 L16.1002639,16.3931947 Z M24.1503958,10 L27,10 L27,28.9640832 L24.1503958,28.9640832 L24.1503958,10 Z" id="形状" fill="#1AC0FF" fill-rule="nonzero"></path>
                    <polygon id="路径" fill="#D6F6FF" points="2.3871409 15 1 13.3696203 9.42954856 6.42278481 10.745554 6.38734177 17.5389877 11.5620253 25.2927497 1 27 2.24050633 18.6060192 13.7240506 17.1121751 13.9367089 10.1053352 8.58481013"></polygon>
                    <path d="M24,2 C24,3.1045695 24.8954305,4 26,4 C27.1045695,4 28,3.1045695 28,2 C28,0.8954305 27.1045695,0 26,0 C24.8954305,0 24,0.8954305 24,2 Z" id="路径" fill="#D6F6FF"></path>
                </g>
            </g>
        </g>
    </g>
</svg>