<?xml version="1.0" encoding="UTF-8"?>
<svg width="28px" height="28px" viewBox="0 0 28 28" version="1.1" xmlns="http://www.w3.org/2000/svg" xmlns:xlink="http://www.w3.org/1999/xlink">
    <!-- Generator: Sketch 52.4 (67378) - http://www.bohemiancoding.com/sketch -->
    <title>时间@3x</title>
    <desc>Created with Sketch.</desc>
    <g id="页面-1" stroke="none" stroke-width="1" fill="none" fill-rule="evenodd">
        <g id="热点发现-重大事件" transform="translate(-2256.000000, -614.000000)">
            <g id="6" transform="translate(2256.000000, 575.000000)">
                <g id="时间" transform="translate(0.000000, 39.000000)">
                    <path d="M13.186722,22.4601542 L15.1784232,22.4601542 L15.1784232,26 L13.186722,26 L13.186722,22.4601542 Z M22.4771784,13 L26,13 L26,15.0051414 L22.4771784,15.0051414 L22.4771784,13 Z M2,13 L5.52282158,13 L5.52282158,15.0051414 L2,15.0051414 L2,13 Z" id="形状" fill="#D6F6FF" fill-rule="nonzero"></path>
                    <path d="M14,28 C6.27251732,28 0,21.7274827 0,14 C0,10.0230947 1.71362587,6.20785219 4.65588915,3.55658199 L6.36951501,5.4965358 C3.94457275,7.66281755 2.58660508,10.7667436 2.58660508,14 C2.58660508,20.3048499 7.72748268,25.4133949 14,25.4133949 C20.2725173,25.4133949 25.4133949,20.3048499 25.4133949,14 C25.4133949,6.49884527 19.1732102,2.58660508 13.0300231,2.58660508 L13.0300231,0 C20.4665127,0 28,4.81755196 28,14 C28,21.7274827 21.7274827,28 14,28 Z" id="路径" fill="#1AC0FF"></path>
                    <polygon id="路径" fill="#1AC0FF" points="13 0 16 0 16 14 13 14"></polygon>
                    <polygon id="路径" fill="#1AC0FF" points="13.7849003 13 16 14.6614572 12.2150997 19 10 17.3385428"></polygon>
                </g>
            </g>
        </g>
    </g>
</svg>