<?xml version="1.0" encoding="UTF-8"?>
<svg width="260px" height="260px" viewBox="0 0 260 260" version="1.1" xmlns="http://www.w3.org/2000/svg" xmlns:xlink="http://www.w3.org/1999/xlink">
    <!-- Generator: Sketch 52.4 (67378) - http://www.bohemiancoding.com/sketch -->
    <title>分组 4@3x</title>
    <desc>Created with Sketch.</desc>
    <defs>
        <linearGradient x1="16.9792632%" y1="10.9459285%" x2="85.2715956%" y2="86.1052462%" id="linearGradient-1">
            <stop stop-color="#1AC0FF" offset="0%"></stop>
            <stop stop-color="#6D0ECC" offset="46.0861899%"></stop>
            <stop stop-color="#003891" offset="100%"></stop>
        </linearGradient>
    </defs>
    <g id="页面-1" stroke="none" stroke-width="1" fill="none" fill-rule="evenodd">
        <g id="热点发现-重大事件" transform="translate(-379.000000, -405.000000)">
            <g id="1" transform="translate(379.000000, 405.000000)">
                <g id="分组-4">
                    <circle id="椭圆形-copy-16" stroke="#E83B7F" cx="131.5" cy="132.5" r="108.5"></circle>
                    <path d="M130,4.04669261 C128.886868,4.04669261 127.984496,3.14080961 127.984496,2.0233463 C127.984496,0.905882997 128.886868,0 130,0 C131.113132,0 132.015504,0.905882997 132.015504,2.0233463 C132.015504,3.14080961 131.113132,4.04669261 130,4.04669261 Z M178.088561,13.4087739 C177.123969,12.9977361 176.673934,11.8795259 177.083379,10.9111815 C177.492824,9.94283718 178.6067,9.49105094 179.571291,9.90208873 C180.535882,10.3131265 180.985917,11.4313367 180.576472,12.3996811 C180.167028,13.3680254 179.053152,13.8198117 178.088561,13.4087739 Z M218.884288,40.7698586 C218.143316,40.0260028 218.143316,38.8199742 218.884288,38.0761184 C219.625261,37.3322627 220.826615,37.3322627 221.567587,38.0761184 C222.30856,38.8199742 222.30856,40.0260028 221.567587,40.7698586 C220.826615,41.5137144 219.625261,41.5137144 218.884288,40.7698586 Z M246.12665,81.693611 C245.734102,80.7182405 246.203508,79.6080854 247.175098,79.2140101 C248.146688,78.8199349 249.25254,79.2911678 249.645088,80.2665382 C250.037636,81.2419087 249.56823,82.3520638 248.59664,82.7461391 C247.62505,83.1402144 246.519197,82.6689815 246.12665,81.693611 Z M255.968992,130.505837 C255.968992,129.388373 256.871364,128.48249 257.984496,128.48249 C259.097628,128.48249 260,129.388373 260,130.505837 C260,131.6233 259.097628,132.529183 257.984496,132.529183 C256.871364,132.529183 255.968992,131.6233 255.968992,130.505837 Z M246.139322,178.275676 C246.548767,177.307331 247.662643,176.855545 248.627234,177.266583 C249.591825,177.677621 250.04186,178.795831 249.632415,179.764175 C249.222971,180.73252 248.109095,181.184306 247.144504,180.773268 C246.179913,180.36223 245.729878,179.24402 246.139322,178.275676 Z M218.884288,219.230141 C219.625261,218.486286 220.826615,218.486286 221.567587,219.230141 C222.30856,219.973997 222.30856,221.180026 221.567587,221.923882 C220.826615,222.667737 219.625261,222.667737 218.884288,221.923882 C218.143316,221.180026 218.143316,219.973997 218.884288,219.230141 Z M178.119155,246.578504 C179.090745,246.184429 180.196597,246.655662 180.589145,247.631032 C180.981693,248.606403 180.512286,249.716558 179.540696,250.110633 C178.569106,250.504708 177.463254,250.033476 177.070706,249.058105 C176.678159,248.082735 177.147565,246.972579 178.119155,246.578504 Z M130,255.953307 C131.113132,255.953307 132.015504,256.85919 132.015504,257.976654 C132.015504,259.094117 131.113132,260 130,260 C128.886868,260 127.984496,259.094117 127.984496,257.976654 C127.984496,256.85919 128.886868,255.953307 130,255.953307 Z M81.9114394,246.591226 C82.8760305,247.002264 83.3260656,248.120474 82.916621,249.088818 C82.5071764,250.057163 81.3933003,250.508949 80.4287092,250.097911 C79.4641182,249.686873 79.014083,248.568663 79.4235277,247.600319 C79.8329723,246.631975 80.9468483,246.180188 81.9114394,246.591226 Z M41.1157118,219.230141 C41.8566845,219.973997 41.8566845,221.180026 41.1157118,221.923882 C40.3747392,222.667737 39.1733852,222.667737 38.4324126,221.923882 C37.6914399,221.180026 37.6914399,219.973997 38.4324126,219.230141 C39.1733852,218.486286 40.3747392,218.486286 41.1157118,219.230141 Z M13.8606779,178.275676 C14.2701225,179.24402 13.8200874,180.36223 12.8554963,180.773268 C11.8909052,181.184306 10.7770291,180.73252 10.3675845,179.764175 C9.95813989,178.795831 10.408175,177.677621 11.3727661,177.266583 C12.3373572,176.855545 13.4512332,177.307331 13.8606779,178.275676 Z M4.03100775,130.505837 C4.03100775,131.6233 3.12863593,132.529183 2.01550388,132.529183 C0.902371822,132.529183 1.14402875e-13,131.6233 1.14199891e-13,130.505837 C1.13996907e-13,129.388373 0.902371822,128.48249 2.01550388,128.48249 C3.12863593,128.48249 4.03100775,129.388373 4.03100775,130.505837 Z M13.8606779,81.7243244 C13.4512332,82.6926688 12.3373572,83.144455 11.3727661,82.7334172 C10.408175,82.3223794 9.95813989,81.2041692 10.3675845,80.2358248 C10.7770291,79.2674805 11.8909052,78.8156942 12.8554963,79.226732 C13.8200874,79.6377698 14.2701225,80.75598 13.8606779,81.7243244 Z M41.1157118,40.7698586 C40.3747392,41.5137144 39.1733852,41.5137144 38.4324126,40.7698586 C37.6914399,40.0260028 37.6914399,38.8199742 38.4324126,38.0761184 C39.1733852,37.3322627 40.3747392,37.3322627 41.1157118,38.0761184 C41.8566845,38.8199742 41.8566845,40.0260028 41.1157118,40.7698586 Z M81.8808451,13.4214958 C80.9092551,13.8155711 79.8034029,13.3443382 79.4108551,12.3689677 C79.0183072,11.3935972 79.4877136,10.2834421 80.4593036,9.88936683 C81.4308936,9.49529157 82.5367458,9.96652446 82.9292936,10.9418949 C83.3218414,11.9172654 82.852435,13.0274205 81.8808451,13.4214958 Z" id="合并形状" fill="url(#linearGradient-1)"></path>
                </g>
            </g>
        </g>
    </g>
</svg>