<?xml version="1.0" encoding="UTF-8"?>
<svg width="28px" height="28px" viewBox="0 0 28 28" version="1.1" xmlns="http://www.w3.org/2000/svg" xmlns:xlink="http://www.w3.org/1999/xlink">
    <!-- Generator: Sketch 52.4 (67378) - http://www.bohemiancoding.com/sketch -->
    <title>热度@3x</title>
    <desc>Created with Sketch.</desc>
    <g id="页面-1" stroke="none" stroke-width="1" fill="none" fill-rule="evenodd">
        <g id="热点发现-重大事件" transform="translate(-1587.000000, -615.000000)">
            <g id="4" transform="translate(1587.000000, 574.000000)">
                <g id="热度" transform="translate(0.000000, 41.000000)">
                    <path d="M25.7809984,10.7744825 C25.4457523,10.3684673 24.8890789,10.1920686 24.3657465,10.3260172 C23.8432954,10.4584286 23.4555374,10.877445 23.3826733,11.3883391 C23.3155601,12.283736 23.0747132,13.1594628 22.6723796,13.9709899 C22.4033754,13.6884154 22.1637124,13.3816438 21.9567503,13.0549758 C20.9650068,11.5505499 18.934167,7.441209 21.4805534,1.76955516 C21.6613463,1.36709117 21.6108811,0.904051154 21.3471649,0.545658568 C21.0796561,0.187618927 20.6405648,-0.0172338365 20.1800155,0.00113908762 C15.6074579,0.19579208 12.0579901,1.58762458 9.6289856,4.13592486 C6.74179163,7.16576866 6.17222276,11.0868178 6.10085992,13.261079 C5.33000557,12.2640968 4.92391413,11.0531766 4.94504861,9.81457604 C4.94638642,9.24607222 4.5530665,8.74536225 3.98064979,8.58686272 C3.40755005,8.42585352 2.79158308,8.64254627 2.46535649,9.11993203 C-0.11971254,12.9207543 -0.746638465,17.9683736 0.940725994,21.3957929 C2.91554266,25.4078074 7.76221362,28 13.2864981,28 C20.6922274,28 25.7069678,25.595463 27.4076711,21.2272209 C28.7468916,17.7889875 27.6477704,13.0467063 25.7809984,10.7744825 Z M24.8806261,20.3481018 C23.5980957,23.6406636 19.4803929,25.4542442 13.2864981,25.4542442 C8.80531165,25.4542442 4.91770397,23.4396493 3.38240239,20.3220209 C2.49937056,18.52816 2.48002922,16.0409273 3.21233206,13.6720131 C3.79623831,14.764084 4.64442076,15.7078273 5.68668864,16.4251443 C6.33808971,16.8309146 7.17529127,16.8460662 7.84236255,16.4641575 C8.50943383,16.0822487 8.88911395,15.3704133 8.81998438,14.6312834 C8.81464884,14.5791215 8.31977753,9.3139489 11.6311469,5.8394566 C13.3925735,4.10076221 15.7346738,3.00250192 18.2538857,2.73391443 C16.9255034,6.63509098 17.4433499,10.8945573 19.6724723,14.4022799 C20.696896,15.9518704 21.6499568,16.6732315 22.6710457,16.6732315 C23.6560165,16.6532278 24.547436,16.1119978 24.9833352,15.2693127 C25.4441597,16.9387507 25.4083635,18.6976148 24.8799592,20.348738 L24.8806261,20.3481018 Z" id="形状" fill="#1AC0FF" fill-rule="nonzero"></path>
                    <path d="M14.9843283,13.1966667 L12.736035,12 C12.0091069,13.6773333 11.5709007,18.5206667 12.6395934,22 L15,21.1093333 C14.0807916,18.1146667 14.6160421,14.0453333 14.9843283,13.1966667 Z" id="路径" fill="#D6F6FF"></path>
                </g>
            </g>
        </g>
    </g>
</svg>