<?xml version="1.0" encoding="UTF-8"?>
<svg width="29px" height="24px" viewBox="0 0 29 24" version="1.1" xmlns="http://www.w3.org/2000/svg" xmlns:xlink="http://www.w3.org/1999/xlink">
    <!-- Generator: Sketch 52.4 (67378) - http://www.bohemiancoding.com/sketch -->
    <title>敏感信息@3x</title>
    <desc>Created with Sketch.</desc>
    <g id="页面-1" stroke="none" stroke-width="1" fill="none" fill-rule="evenodd">
        <g id="热点发现-重大事件" transform="translate(-1931.000000, -493.000000)" fill-rule="nonzero">
            <g id="2" transform="translate(1931.500000, 450.000000)">
                <g id="敏感信息" transform="translate(0.000000, 43.000000)">
                    <path d="M24.5945946,9.25513196 L27.4152334,7.21407625 L28,6.05278592 L28,1.40762463 L26.6240786,0 L1.37592138,0 L0,1.40762463 L0,6.08797654 L0.584766585,7.24926686 L3.40540541,9.29032258 L3.40540541,14.744868 L0.584766585,16.7507331 L0,17.9120235 L0,22.5923754 L1.37592138,24 L26.6240786,24 L28,22.5923754 L28,17.9120235 L27.4152334,16.7507331 L24.5945946,14.7096774 L24.5945946,9.25513196 Z M22.4275184,16.6099707 L25.2481572,18.6510264 L25.2481572,21.1847507 L2.75184275,21.1847507 L2.75184275,18.6510264 L5.57248157,16.6099707 L6.15724816,15.4486804 L6.15724816,8.55131965 L5.57248157,7.39002933 L2.75184275,5.34897361 L2.75184275,2.81524927 L25.2481572,2.81524927 L25.2481572,5.34897361 L22.4275184,7.39002933 L21.8427518,8.55131965 L21.8427518,15.4486804 L22.4275184,16.6099707 Z" id="形状" fill="#1AC0FF"></path>
                    <path d="M10,9 L18,9 L18,11.0224719 L10,11.0224719 L10,9 Z M10,12.9775281 L18,12.9775281 L18,15 L10,15 L10,12.9775281 Z" id="形状" fill="#D6F6FF"></path>
                </g>
            </g>
        </g>
    </g>
</svg>