<?xml version="1.0" encoding="UTF-8"?>
<svg width="28px" height="26px" viewBox="0 0 28 26" version="1.1" xmlns="http://www.w3.org/2000/svg" xmlns:xlink="http://www.w3.org/1999/xlink">
    <!-- Generator: Sketch 52.4 (67378) - http://www.bohemiancoding.com/sketch -->
    <title>信息量@3x</title>
    <desc>Created with Sketch.</desc>
    <g id="页面-1" stroke="none" stroke-width="1" fill="none" fill-rule="evenodd">
        <g id="热点发现-重大事件" transform="translate(-1587.000000, -496.000000)" fill-rule="nonzero">
            <g id="1" transform="translate(1587.000000, 453.000000)">
                <g id="信息量" transform="translate(0.000000, 43.000000)">
                    <path d="M21.6363636,0 L0,0 L0,19.5 C0.00385787211,23.0882174 2.85069627,25.9960595 6.36363636,26 L28,26 L28,6.5 C27.9961421,2.91178262 25.1493037,0.0039405408 21.6363636,0 Z M25.4545455,23.4 L6.36363636,23.4 C4.25578518,23.3978502 2.54755924,21.6530194 2.54545455,19.5 L2.54545455,2.6 L21.6363636,2.6 C23.7440696,2.6025073 25.4520908,4.34712889 25.4545455,6.5 L25.4545455,23.4 Z" id="形状" fill="#1AC0FF"></path>
                    <path d="M7,9 L7,11.6666667 L21,11.6666667 L21,9 L7,9 Z M7,17 L15.9090909,17 L15.9090909,14.3333333 L7,14.3333333 L7,17 Z" id="形状" fill="#D6F6FF"></path>
                </g>
            </g>
        </g>
    </g>
</svg>