<?xml version="1.0" encoding="UTF-8"?>
<svg width="80px" height="78px" viewBox="0 0 80 78" version="1.1" xmlns="http://www.w3.org/2000/svg" xmlns:xlink="http://www.w3.org/1999/xlink">
    <!-- Generator: Sketch 52.4 (67378) - http://www.bohemiancoding.com/sketch -->
    <title>无数据icon@1x</title>
    <desc>Created with Sketch.</desc>
    <defs>
        <linearGradient x1="8.0042133%" y1="100%" x2="94.3544962%" y2="100%" id="linearGradient-1">
            <stop stop-color="#1AC0FF" offset="0%"></stop>
            <stop stop-color="#3C83F5" offset="100%"></stop>
        </linearGradient>
    </defs>
    <g id="页面-1" stroke="none" stroke-width="1" fill="none" fill-rule="evenodd" opacity="0.698218936">
        <g id="热点发现-热门事件" transform="translate(-1629.000000, -386.000000)" fill="url(#linearGradient-1)">
            <g id="数据详情" transform="translate(1345.000000, 243.000000)">
                <g id="无数据icon" transform="translate(284.000000, 143.000000)">
                    <g id="分组">
                        <path d="M51.42,77.9813546 L5.5,77.9813546 C2.46,77.9813546 3.66374024e-15,75.5549641 3.66374024e-15,72.5518088 L3.66374024e-15,5.44819124 C3.66374024e-15,2.44503586 2.46,0.0186454183 5.5,0.0186454183 L66.08,0.0186454183 C69.12,0.0186454183 71.58,2.44503586 71.58,5.44819124 L71.58,27.8226932 C71.58,28.7574502 70.82,29.5330996 69.86,29.5330996 C68.92,29.5330996 68.14,28.7773386 68.14,27.8226932 L68.14,5.44819124 C68.14,4.33443825 67.2,3.41956972 66.06,3.41956972 L5.5,3.41956972 C4.36,3.41956972 3.42,4.33443825 3.42,5.44819124 L3.42,72.5518088 C3.42,73.6655618 4.36,74.5804303 5.5,74.5804303 L51.42,74.5804303 C52.36,74.5804303 53.14,75.3361912 53.14,76.2908367 C53.14,77.2454821 52.36,77.9813546 51.42,77.9813546 Z" id="路径"></path>
                        <path d="M54.96,20.6429641 L16,20.6429641 C15.06,20.6429641 14.3,19.8872032 14.3,18.9524462 C14.3,18.0176892 15.06,17.2619283 16,17.2619283 L54.96,17.2619283 C55.9,17.2619283 56.66,18.0176892 56.66,18.9524462 C56.66,19.8872032 55.9,20.6429641 54.96,20.6429641 Z M36.26,36.7327171 L16,36.7327171 C15.06,36.7327171 14.3,35.9769562 14.3,35.0421992 C14.3,34.1074422 15.06,33.3516813 16,33.3516813 L36.26,33.3516813 C37.2,33.3516813 37.96,34.1074422 37.96,35.0421992 C37.96,35.9570677 37.2,36.7327171 36.26,36.7327171 Z M29.46,52.8025817 L16,52.8025817 C15.06,52.8025817 14.3,52.0468207 14.3,51.1120637 C14.3,50.1773068 15.06,49.4215458 16,49.4215458 L29.46,49.4215458 C30.4,49.4215458 31.16,50.1773068 31.16,51.1120637 C31.16,52.0468207 30.4,52.8025817 29.46,52.8025817 Z M78.3,74.5207649 C77.86,74.5207649 77.42,74.3616574 77.1,74.0235538 L67.58,64.5566534 C66.92,63.9003347 66.92,62.8263586 67.58,62.1700398 C68.24,61.5137211 69.32,61.5137211 69.98,62.1700398 L79.5,71.6369402 C80.16,72.293259 80.16,73.3672351 79.5,74.0235538 C79.16,74.3616574 78.74,74.5207649 78.3,74.5207649 Z" id="形状" fill-rule="nonzero"></path>
                        <path d="M56.8,69.4690996 C46.82,69.4690996 38.7,61.3943904 38.7,51.4700558 C38.7,41.5457211 46.82,33.471012 56.8,33.471012 C66.78,33.471012 74.9,41.5457211 74.9,51.4700558 C74.9,61.3943904 66.78,69.4690996 56.8,69.4690996 Z M56.8,36.8321594 C48.7,36.8321594 42.1,43.3953466 42.1,51.4501673 C42.1,59.504988 48.7,66.0681753 56.8,66.0681753 C64.9,66.0681753 71.5,59.504988 71.5,51.4501673 C71.5,43.3953466 64.9,36.8321594 56.8,36.8321594 Z" id="形状" fill-rule="nonzero"></path>
                    </g>
                </g>
            </g>
        </g>
    </g>
</svg>