<?xml version="1.0" encoding="UTF-8"?>
<svg width="13px" height="18px" viewBox="0 0 13 18" version="1.1" xmlns="http://www.w3.org/2000/svg" xmlns:xlink="http://www.w3.org/1999/xlink">
    <!-- Generator: Sketch 52.4 (67378) - http://www.bohemiancoding.com/sketch -->
    <title>定位</title>
    <desc>Created with Sketch.</desc>
    <g id="页面-1" stroke="none" stroke-width="1" fill="none" fill-rule="evenodd">
        <g id="热点发现-重大事件" transform="translate(-964.000000, -490.000000)">
            <g id="子事件列表" transform="translate(753.000000, 418.000000)">
                <g id="1">
                    <g id="地域" transform="translate(208.000000, 65.000000)">
                        <g id="定位" transform="translate(0.000000, 6.000000)">
                            <rect id="矩形" fill="#000000" opacity="0" x="0" y="0" width="19" height="19"></rect>
                            <path d="M9.5,1 C5.912,1 3,3.8788 3,7.4284 C3,13.5616 9.5,19 9.5,19 C9.5,19 16,13.3288 16,7.4284 C16,3.8788 13.088,1 9.5,1 Z M9.5,11.2 C7.54290909,11.2 5.95454545,9.5872 5.95454545,7.6 C5.95454545,5.6128 7.54290909,4 9.5,4 C11.4570909,4 13.0454545,5.6128 13.0454545,7.6 C13.0454545,9.5872 11.4570909,11.2 9.5,11.2 Z" id="形状" fill="#7A9ECB" fill-rule="nonzero"></path>
                        </g>
                    </g>
                </g>
            </g>
        </g>
    </g>
</svg>