<?xml version="1.0" encoding="UTF-8"?>
<svg width="15px" height="15px" viewBox="0 0 15 15" version="1.1" xmlns="http://www.w3.org/2000/svg" xmlns:xlink="http://www.w3.org/1999/xlink">
    <!-- Generator: Sketch 52.4 (67378) - http://www.bohemiancoding.com/sketch -->
    <title>合并形状@3x</title>
    <desc>Created with Sketch.</desc>
    <defs>
        <linearGradient x1="50%" y1="3.87463873%" x2="50%" y2="100%" id="linearGradient-1">
            <stop stop-color="#8D77FA" offset="0%"></stop>
            <stop stop-color="#716CFF" offset="100%"></stop>
        </linearGradient>
    </defs>
    <g id="页面-1" stroke="none" stroke-width="1" fill="none" fill-rule="evenodd">
        <g id="6我2.0" transform="translate(-31.000000, -422.000000)" fill="url(#linearGradient-1)">
            <g id="1" transform="translate(0.000000, 204.000000)">
                <g id="报告" transform="translate(31.000000, 218.000000)">
                    <path d="M9.34842609,12.1875 C9.64941072,12.825 10.3856482,14.2514422 11.25,14.9249999 C11.0469193,14.9971153 10.9087349,14.9999999 10.9087349,14.9999999 L1.74548717,14.9999999 C1.28250972,15.0001913 0.838451984,14.7631998 0.51107747,14.3412015 C0.183702957,13.9192032 -0.000148371754,13.3467957 8.98431641e-08,12.75 C8.98431641e-08,12.5524038 0.0257348353,12.3677885 0.0626586005,12.1875 L9.34842609,12.1875 Z M11.4999171,3.28564188 L11.4999171,3.16924709 C11.4999171,2.93704834 11.3003564,2.74738982 11.0566562,2.74738982 L3.57157659,2.74738982 C3.32725464,2.74738982 3.12769397,2.93704834 3.12769397,3.16924709 L3.12769397,3.28564188 C3.128377,3.51835781 3.32671047,3.70685002 3.57157659,3.70749916 L11.0560345,3.70749916 C11.3009006,3.70685002 11.4992341,3.51835781 11.4999171,3.28564188 Z M11.4999171,5.58872264 L11.4999171,5.47173701 C11.4999171,5.24012909 11.3003564,5.04987973 11.0566562,5.04987973 L3.57157659,5.04987973 C3.32725464,5.04987973 3.12769397,5.24012909 3.12769397,5.47173701 L3.12769397,5.58872264 C3.12871798,5.8212078 3.32695209,6.00934171 3.57157659,6.00998908 L11.0560345,6.00998908 C11.300659,6.00934171 11.4988931,5.8212078 11.4999171,5.58872264 Z M9.16673574,7.8935759 L9.16673574,7.77718111 C9.16673574,7.54498235 8.96717507,7.35532383 8.72285312,7.35532383 L3.57157659,7.35532383 C3.32725464,7.35532383 3.12769397,7.54498235 3.12769397,7.77718111 L3.12769397,7.8935759 C3.128377,8.12629183 3.32671047,8.31478403 3.57157659,8.31543318 L8.72285312,8.31543318 C8.96771924,8.31478403 9.16605271,8.12629183 9.16673574,7.8935759 Z M3.11961207,0.00177250956 L15,0 L15,0.126439015 C14.1293573,0.41682249 13.5460958,1.19751181 13.5446369,2.07442702 C13.5446369,2.15359911 13.560179,2.22863535 13.5695043,2.30485326 L13.5446369,2.30485326 L13.5446369,11.9839371 C13.3662135,13.007266 12.9857427,13.6506869 12.5797828,14.0565916 C12.5393733,14.0625 12.5051807,14.0625 12.4834218,14.0625 C11.7566727,14.0512741 10.6444794,12.7083027 10.0886936,11.7600101 L9.95005802,11.521903 L0.9375,11.521903 L0.9375,2.30662577 L0.962367374,2.30662577 C0.953042109,2.23040786 0.9375,2.15537162 0.9375,2.07560869 C0.9375,0.930260595 1.91446485,0.00177250956 3.11961207,0.00177250956 Z" id="合并形状"></path>
                </g>
            </g>
        </g>
    </g>
</svg>