<?xml version="1.0" encoding="UTF-8"?>
<svg width="15px" height="15px" viewBox="0 0 15 15" version="1.1" xmlns="http://www.w3.org/2000/svg" xmlns:xlink="http://www.w3.org/1999/xlink">
    <!-- Generator: Sketch 52.4 (67378) - http://www.bohemiancoding.com/sketch -->
    <title>我current</title>
    <desc>Created with Sketch.</desc>
    <g id="组件" stroke="none" stroke-width="1" fill="none" fill-rule="evenodd">
        <g id="我-底部标签栏" transform="translate(-311.000000, -10.000000)" fill-rule="nonzero">
            <g id="首页-底部标签栏">
                <g id="我current" transform="translate(311.000000, 10.000000)">
                    <path d="M7.99346408,1 C6.33746546,1.00360786 4.9975993,2.34834858 5.00000323,4.00435137 C5.00240716,5.66035415 6.34617183,7.0011992 8.00217394,6.9999992 C9.65817606,6.9987992 10.9999961,5.65600808 11,4.00000355 C10.9928027,2.34464481 9.64883649,1.00652031 7.99346408,1.00653596 L7.99346408,1 Z" id="路径" fill="#8F9DBA"></path>
                    <path d="M7.21253578,7.92207397 C3.71504313,8.09490976 0.929267088,10.9869692 0.918363093,14.5361845 C0.920184996,14.658551 0.872971247,14.7765364 0.787298158,14.8637109 C0.701625069,14.9508854 0.584653372,14.9999627 0.462585799,14.999949 C0.34053182,15.0017756 0.222847781,14.9544409 0.135895987,14.8685485 C0.0489441927,14.782656 -7.74753697e-06,14.6653847 5.84950901e-06,14.5430046 C-0.00248957285,12.540679 0.793524667,10.6204414 2.2108659,9.20971248 C3.17001841,8.24795202 4.36146771,7.57272887 5.65291666,7.23885685 C4.85790474,6.66239915 4.27812129,5.79674121 4.07631819,4.77583301 C3.70640602,2.90447241 4.70946928,1.0323092 6.47239484,0.303685836 C8.23532039,-0.42493753 10.2674471,0.192770939 11.3266562,1.77924265 C12.3858654,3.36571437 12.1773557,5.47939917 10.8285768,6.82832677 C10.0777295,7.58136708 9.05712606,8.00318608 7.993723,7.99998188 C7.72719099,7.99955274 7.4658838,7.97283329 7.21253578,7.92207397 Z" id="形状" fill="#F18D00"></path>
                    <path d="M14.4841627,14.9985758 C14.2195419,14.9985758 14.0050242,14.7817461 14.0050242,14.514273 C14.0137253,12.2888393 12.969179,10.1933493 11.194555,8.87612145 C10.9812784,8.71643606 10.9364538,8.41222719 11.0944365,8.19665191 C11.2524191,7.98107663 11.5533841,7.93576893 11.7666607,8.09545432 C12.753655,8.82533697 13.5611549,9.77510071 14.1265967,10.8711597 C14.6986704,11.9882274 14.9978296,13.2275042 14.9990579,14.4853594 C15.0077449,14.6252637 14.9560332,14.7621094 14.8572849,14.8605357 C14.7585366,14.958962 14.6224401,15.0093122 14.4841627,14.9985758 Z" id="路径" fill="#FFFFFF"></path>
                </g>
            </g>
        </g>
    </g>
</svg>