<?xml version="1.0" encoding="UTF-8"?>
<svg width="26px" height="16px" viewBox="0 0 26 16" version="1.1" xmlns="http://www.w3.org/2000/svg" xmlns:xlink="http://www.w3.org/1999/xlink">
    <!-- Generator: Sketch 52.4 (67378) - http://www.bohemiancoding.com/sketch -->
    <title>U媒logo_current</title>
    <desc>Created with Sketch.</desc>
    <g id="组件" stroke="none" stroke-width="1" fill="none" fill-rule="evenodd">
        <g id="U媒-底部标签栏" transform="translate(-253.000000, -9.000000)">
            <g id="首页-底部标签栏">
                <g id="4" transform="translate(242.000000, 9.000000)">
                    <g id="U媒logo_current" transform="translate(11.000000, 0.000000)">
                        <g id="分组" transform="translate(9.000000, 5.000000)" fill="#F18D00">
                            <path d="M16.6275773,1.64830769 L16.9342784,0.527153846 L16.0825258,0.527153846 L16.2183505,0.0287692308 L14.5972165,0.0287692308 L14.4613918,0.527153846 L10.3393299,0.527153846 L10.4751546,0.0287692308 L8.85402062,0.0287692308 L8.71819588,0.527153846 L8.53943299,1.18123077 L7.15226804,6.25730769 L10.023866,6.25730769 L9.70927835,7.40976923 L6.83768041,7.40976923 L6.53097938,8.53092308 L9.40257732,8.53092308 L8.7392268,10.9602308 L10.3603608,10.9602308 L11.0237113,8.53092308 L12.5353093,8.53092308 L11.8719588,10.9602308 L14.3036598,10.9602308 L14.6103608,9.83907692 L13.7997938,9.83907692 L14.4631443,7.40976923 L12.8420103,7.40976923 L11.3304124,7.40976923 L11.645,6.25730769 L14.5165979,6.25730769 L15.2851031,3.44638462 L15.4270619,2.926 L15.7758247,1.64915385 L16.6275773,1.64915385 L16.6275773,1.64830769 Z M9.37716495,4.04630769 L13.4992268,4.04630769 L13.2012887,5.13615385 L9.0792268,5.13615385 L9.37716495,4.04630769 Z M13.8059278,2.92515385 L9.68386598,2.92515385 L10.0326289,1.64830769 L14.1546907,1.64830769 L13.8059278,2.92515385 Z" id="形状" fill-rule="nonzero"></path>
                            <polygon id="路径" points="5.86762887 10.9593846 7.48876289 10.9593846 7.97335052 9.18415385 6.35221649 9.18415385"></polygon>
                            <polygon id="路径" points="2.67443299 7.88615385 6.83329897 5.57784615 7.23639175 4.10046154 7.23639175 4.10046154 7.45458763 3.30338462 5.83345361 3.30338462 5.32520619 5.16153846 3.07752577 6.40961538 2.9285567 6.29030769 3.88984536 2.76946154 7.60005155 2.76946154 7.90675258 1.64830769 4.19654639 1.64830769 4.63907216 0.0287692308 3.01793814 0.0287692308 1.30041237 6.31484615 1.30041237 6.31484615 1.19350515 6.70661538"></polygon>
                            <polygon id="路径" points="4.59350515 7.17453846 0.434639175 9.48284615 0.0315463918 10.9593846 4.19041237 8.65107692 5.67134021 9.83061538 6.07443299 8.35407692"></polygon>
                        </g>
                        <polygon id="路径" fill="#FFFFFF" points="3.36606374 3 1 3 1.63393626 1 4 1"></polygon>
                        <polygon id="路径" fill="#FFFFFF" points="4.57761557 1 3 1 3.42238443 0 5 0"></polygon>
                        <path d="M12,4.5791953 L9.39616824,4.5791953 L7.43096234,11.6520195 C7.56309183,11.6137926 7.56309183,11.6137926 7.43096234,11.6520195 L7.42567716,11.6715576 C7.24686192,12.3146189 6.57828672,12.838752 5.91059238,12.871882 L2.91741907,12.871882 L5.66042722,3 L3.05659546,3 L0,14 L7.74895397,14 L8.13477208,14 C8.82360713,14 9.53270205,13.4614256 9.71680247,12.7962777 C9.71680247,12.7962777 9.71680247,12.7962777 9.71680247,12.7962777 L12,4.5791953 Z" id="路径" fill="#F18D00"></path>
                    </g>
                </g>
            </g>
        </g>
    </g>
</svg>