<?xml version="1.0" encoding="utf-8"?>
<!-- Generator: Adobe Illustrator 16.0.0, SVG Export Plug-In . SVG Version: 6.00 Build 0)  -->
<!DOCTYPE svg PUBLIC "-//W3C//DTD SVG 1.1//EN" "http://www.w3.org/Graphics/SVG/1.1/DTD/svg11.dtd">
<svg version="1.1" xmlns="http://www.w3.org/2000/svg" xmlns:xlink="http://www.w3.org/1999/xlink" x="0px" y="0px"
	 width="595.28px" height="346.482px" viewBox="0 0 595.28 346.482" enable-background="new 0 0 595.28 346.482"
	 xml:space="preserve">
<g id="图层_4">
</g>
<g id="图层_2">
	<path fill="#FFFFFF" d="M172.461,35.95c-4.343-2.688-15.302,3.929-17.576,5.996c-2.274,2.068-9.925,7.237-9.305,0.207
		c0.62-7.03,10.545-15.301,4.549-16.955c-5.997-1.654-15.094,8.271-16.749,10.959s-7.65,8.477-10.338,5.376
		c-2.688-3.102,0-8.478,1.447-12.2s4.962-8.064-2.481-7.443c-7.444,0.62-12.82,8.891-14.475,12.406
		c-1.654,3.515-5.996,10.338-9.304,10.338c-3.309,0-2.688-6.203-2.688-6.203c2.068-5.79-1.034-8.685-4.962-4.549
		c-3.928,4.135-6.616,18.609-10.959,17.989c-4.342-0.62-1.654-10.132-3.722-10.545c-2.067-0.414-5.86,8.116-6.686,11.027
		c-0.848,2.992-9.649,17.921-8.202,29.293c1.447,11.373,16.748,26.054,44.249,25.848c27.5-0.208,55.001-11.786,60.998-27.501
		s-2.688-23.366-2.895-27.087C163.156,49.183,176.803,38.638,172.461,35.95z M148.683,78.2
		c-2.269,10.277-15.439,23.572-40.39,24.399c-19.86,0.658-37.218-10.339-35.702-23.435c1.186-10.245,15.566-23.327,39.287-24.674
		C136.138,53.112,151.117,67.172,148.683,78.2z"/>
	<path fill="#FFFFFF" d="M107.328,65.657c0,0-12.27,0.348-17.369,12.855c-2.55,6.254,0.414,16.229,9.374,17.813
		c9.467,1.675,18.471-4.273,21.228-9.305C126.076,76.96,120.423,64.691,107.328,65.657z M101.229,91.261
		c-3.102,0.517-7.34-1.24-6.307-6.616s5.686-6.132,5.686-6.132c4.136-0.239,6.927,1.479,6.72,5.614
		C107.121,88.264,104.33,90.744,101.229,91.261z M109.81,81.108c-1.758,0.496-3.511-0.745-3.102-2.618
		c0.409-1.874,2.274-1.601,2.274-1.601C111.36,76.993,111.567,80.612,109.81,81.108z"/>
	<g>
		<path fill="#FFFFFF" d="M13.876,301.942l2.814-2.273c2.598-2.019,4.941-4.364,7.035-7.035c2.092-2.669,3.499-4.617,4.221-5.845
			l1.516-2.814c2.236,1.155,5.266,2.237,9.092,3.247l-3.139,3.789c-0.579,0.649-1.516,1.75-2.814,3.301
			c-1.299,1.553-3.896,4.744-7.793,9.579l-2.381,3.03c-1.083-1.082-2.094-1.985-3.031-2.706
			C18.458,303.493,16.618,302.735,13.876,301.942z M17.99,281.702c0.216-1.203,0.341-2.05,0.378-2.54
			c0.036-0.491,0.054-1.019,0.054-1.58c-0.073-0.35-0.181-1.863-0.325-4.539c3.68,0.361,7.468,0.541,11.365,0.541h10.715v-9.309
			h-7.685c-4.113,0-8.515,0.182-13.205,0.541c0.144-1.356,0.233-2.318,0.271-2.889c0.036-0.567,0.036-1.084,0-1.547
			c-0.037-0.462-0.127-1.869-0.271-4.223c7.214,0.361,11.508,0.541,12.88,0.541h15.634c1.483-4.4,2.442-7.396,2.875-8.984
			l1.19-4.979l0.866-3.572c1.875,0.723,5.087,1.696,9.633,2.923c-2.31,5.052-4.438,9.922-6.386,14.612h1.299
			c1.083,0,4.979-0.18,11.689-0.541c-0.216,1.143-0.362,2.036-0.433,2.675c-0.073,0.642-0.091,1.086-0.054,1.335
			c0.036,0.25,0.198,1.835,0.487,4.757c-2.67-0.071-5.105-0.197-7.306-0.379c-2.202-0.179-3.734-0.271-4.6-0.271h-8.334v9.309h8.984
			c3.607,0,7.431-0.18,11.473-0.541c-0.217,1.273-0.343,2.068-0.379,2.383c-0.037,0.316-0.019,0.999,0.054,2.052v1.368l0.325,2.856
			c-3.826-0.36-7.577-0.541-11.257-0.541h-9.2v23.487c0,1.226-0.069,2.543-0.207,3.95c-0.139,1.407-0.669,2.452-1.596,3.139
			c-0.927,0.686-2.266,1.335-4.019,1.949c-1.752,0.611-3.673,1.207-5.764,1.785c-2.09,0.577-3.497,0.975-4.218,1.19
			c-0.146-1.228-0.289-2.364-0.433-3.409c-0.145-1.047-0.416-2.11-0.812-3.192c-0.397-1.083-2.111-3.248-5.141-6.495
			c8.513,1.37,12.916,1.732,13.205,1.083c0.288-0.649,0.433-1.77,0.433-3.355v-20.132H29.571
			C25.962,281.161,22.103,281.342,17.99,281.702z M21.778,239.057c0.144-1.215,0.252-2.177,0.325-2.889v-1.495
			c0-1.065,0-1.636,0-1.707l-0.325-2.568c4.4,0.361,8.622,0.541,12.664,0.541h8.768l-0.758-2.814
			c-0.433-1.515-0.92-2.795-1.461-3.842c-0.542-1.046-1.461-2.688-2.76-4.925l-1.732-2.814c3.607-0.721,6.747-1.876,9.417-3.464
			l7.793,14.504c-3.537,0.723-6.386,1.84-8.551,3.355h11.148c3.751,0,7.72-0.18,11.906-0.541c-0.217,1.214-0.362,2.159-0.433,2.836
			c-0.073,0.677-0.091,1.209-0.054,1.6c0.036,0.393,0.198,1.8,0.487,4.224c-6.567-0.36-10.464-0.542-11.69-0.542H34.441
			C32.926,238.515,28.705,238.696,21.778,239.057z M28.056,243.062c3.318-0.721,6.241-1.804,8.767-3.248l6.386,13.747
			c-2.454,0.649-5.304,1.515-8.551,2.598l-0.866-2.382l-0.757-2.272c-0.722-1.803-1.661-3.572-2.814-5.304L28.056,243.062z
			 M50.353,288.521c2.958-1.442,5.375-3.03,7.252-4.762l11.148,14.179c0.721-1.731,1.299-3.337,1.732-4.816
			c0.433-1.479,0.866-3.499,1.299-6.062c0.433-2.561,0.758-4.996,0.974-7.306l0.325-6.928l0.325-6.062
			c0-0.649-0.019-1.694-0.054-3.139c-0.037-1.442-0.019-4.488,0.054-9.138v-6.448c0-3.318-0.019-5.502-0.054-6.549
			c-0.037-1.045-0.037-1.785,0-2.219c0.036-0.433,0.054-0.758,0.054-0.974l-0.649-14.721h4.438c2.309,0,6.226-0.414,11.75-1.244
			c5.524-0.829,11.205-2.398,17.041-4.709l3.463-1.407c3.031,3.753,6.132,6.892,9.309,9.417l-8.442,1.516
			c-11.041,1.948-20.278,3.463-27.709,4.546v18.941h25.76c3.318,0,6.854-0.18,10.607-0.541c-0.216,1.451-0.343,2.524-0.379,3.225
			c-0.037,0.7-0.073,1.421-0.108,2.158c-0.038,0.739-0.019,1.186,0.054,1.341l0.433,3.234c-4.186-0.288-7.722-0.434-10.607-0.434
			h-4.221v41.996c0,3.968,0.036,6.35,0.108,7.145l0.541,7.468c-2.775-0.289-4.352-0.416-4.729-0.379
			c-0.379,0.036-2.445,0.162-6.203,0.379c0.216-3.319,0.378-5.828,0.487-7.522c0.108-1.696,0.163-4.059,0.163-7.09v-41.996H82.607
			c-0.073,2.96-0.146,5.574-0.216,7.848c-0.073,2.272-0.217,5.539-0.433,9.795c-0.217,4.259-0.56,8.028-1.028,11.312
			c-0.47,3.284-1.407,7-2.814,11.148c-1.407,4.148-3.916,8.93-7.523,14.341l-2.706,4.005c-1.588-1.299-2.995-2.327-4.221-3.084
			c-1.228-0.758-3.934-1.643-8.118-2.652l4.221-3.464c2.958-2.381,5.737-5.593,8.334-9.633c-2.527,1.153-4.871,2.561-7.036,4.222
			l-1.299-2.706c-1.444-2.742-3.428-5.556-5.953-8.442L50.353,288.521z"/>
		<path fill="#FFFFFF" d="M160.019,254.534c-1.948,2.454-3.03,3.934-3.247,4.438l-2.598,5.088l-2.273-1.948
			c-1.155-0.938-3.5-2.436-7.035-4.492c-3.537-2.057-6.64-3.518-9.309-4.384l-2.706-0.866c1.516-2.235,2.417-3.607,2.706-4.112
			l2.273-4.654C145.118,247.139,152.513,250.783,160.019,254.534z M135.773,307.896l1.948-3.572
			c1.586-2.887,3.518-7.901,5.791-15.045s3.805-13.168,4.6-18.075l0.433-2.706c1.443,1.731,2.706,3.049,3.789,3.95
			c1.083,0.903,2.85,1.895,5.304,2.977c-1.012,3.031-1.84,5.593-2.49,7.686c-0.649,2.094-2.129,7.144-4.438,15.152
			c-2.31,8.01-3.789,13.602-4.438,16.777C143.025,312.296,139.525,309.915,135.773,307.896z M138.696,225.094
			c2.02-2.092,3.21-3.391,3.572-3.896l2.922-4.546l21.214,14.611c-1.948,1.878-2.995,2.96-3.139,3.248l-3.897,5.628l-2.273-2.489
			c-1.299-1.299-3.393-3.031-6.278-5.195c-2.887-2.165-5.736-4.005-8.55-5.521L138.696,225.094z M165.106,310.493
			c1.37-2.237,2.165-3.915,2.381-5.033c0.216-1.119,0.396-2.977,0.541-5.574l0.216-4.979V234.61c0-2.118-0.037-3.54-0.108-4.271
			l-0.433-4.813c6.11,0.362,9.417,0.541,9.921,0.541h15.85c-1.15-2.741-2.481-5.411-3.989-8.009l-1.833-3.031
			c3.45-0.216,5.534-0.469,6.254-0.758l5.282-1.84l4.529,13.638h10.134c0.792,0,4.206-0.179,10.245-0.541
			c-0.145,2.187-0.271,4.047-0.378,5.579c-0.108,1.534-0.163,2.703-0.163,3.505v29.462c0,1.242,0.071,2.738,0.216,4.49l0.325,4.155
			c-4.248-0.36-7.705-0.541-10.367-0.541H196.99c1.225,3.826,2.412,6.946,3.563,9.362c1.152,2.419,2.664,4.89,4.536,7.415
			c5.759-4.33,9.862-7.721,12.311-10.175l3.347-3.355c2.449,2.527,5.332,4.943,8.652,7.252l-7.356,4.222
			c-2.808,1.588-6.804,4.113-11.986,7.576c2.735,2.382,5.902,4.312,9.503,5.791c3.601,1.479,8.07,2.903,13.411,4.275l2.381,0.649
			c-4.042,3.534-6.423,6.062-7.144,7.576l-1.407,2.706l-2.165-1.19c-0.217-0.072-3.349-1.606-9.396-4.6
			c-6.048-2.995-10.925-6.803-14.632-11.42c-3.707-4.616-6.425-8.91-8.153-12.88c-1.729-3.968-3.276-8.37-4.643-13.205h-9.934
			v29.333c5.845-4.617,9.055-7.18,9.633-7.686l4.221-4.005c0.36,1.805,0.739,3.374,1.136,4.709c0.396,1.336,1.245,3.049,2.544,5.141
			c-10.174,5.989-18.018,12.267-23.528,18.834C169.885,315.616,167.626,312.945,165.106,310.493z M177.878,246.2h36.043v-11.148
			h-36.043V246.2z M177.878,264.601h36.043v-10.824h-36.043V264.601z"/>
		<path fill="#FFFFFF" d="M246.63,270.626l3.031-3.319c2.165-2.309,4.68-5.61,7.548-9.904c2.867-4.292,5.263-8.641,7.188-13.042
			l2.333-5.304c2.547,2.164,5.445,3.825,8.692,4.979c-3.536,5.412-5.99,9.272-7.36,11.581v47.842l2.889-2.49
			c0.855-0.722,1.924-1.877,3.208-3.463c1.284-1.587,2.265-3.265,2.943-5.033c0.676-1.768,1.14-4.185,1.39-7.252
			c0.25-3.066,0.357-5.104,0.321-6.115c-0.037-1.01-0.054-2.103-0.054-3.276l-0.428-7.439c4.564,0.362,7.203,0.541,7.917,0.541
			h11.554c0.783,0,3.281-0.179,7.494-0.541c-0.289,1.793-0.451,3.161-0.487,4.103c-0.037,0.944-0.054,1.83-0.054,2.659
			c0,0.828,0,1.317,0,1.464v11.148l3.139-2.164c1.153-0.793,3.175-2.345,6.062-4.654c0.144,2.094,0.342,3.663,0.596,4.708
			c0.252,1.047,0.774,2.4,1.569,4.06l-3.464,1.948c-0.362,0.216-2.103,1.425-5.223,3.626s-5.066,3.661-5.838,4.383l-2.422,2.49
			c-0.562-1.299-1.037-2.311-1.422-3.031c-0.385-0.721-1.442-2.165-3.171-4.329c1.083-1.227,1.749-2.128,2.002-2.706
			c0.252-0.577,0.379-1.659,0.379-3.247v-12.339h-10.098c-0.073,2.526-0.181,5.376-0.323,8.551
			c-0.144,3.176-0.734,6.423-1.772,9.741c-1.038,3.319-2.704,6.529-4.996,9.633l-2.256,3.03c-1.075-0.794-2.131-1.479-3.169-2.056
			c-1.039-0.579-3.134-1.083-6.285-1.516v2.165c0,0.865,0.071,2.489,0.216,4.87l0.325,5.304c-2.583-0.289-4.169-0.416-4.761-0.379
			c-0.592,0.036-2.18,0.162-4.764,0.379c0.144-2.381,0.252-4.275,0.325-5.683c0.071-1.407,0.108-3.014,0.108-4.816v-37.667
			c-2.887,4.499-5.81,8.864-8.767,13.098c-0.362-1.804-0.741-3.295-1.137-4.472C249.209,275.512,248.217,273.491,246.63,270.626z
			 M247.821,238.623l3.248-3.03c2.092-1.948,4.473-4.763,7.144-8.442c2.668-3.681,4.798-6.854,6.386-9.525l2.273-3.896
			c0.866,1.083,1.713,1.985,2.544,2.706c0.829,0.723,2.579,1.516,5.25,2.381l-2.922,3.789c-0.722,0.865-2.581,3.428-5.574,7.685
			c-2.995,4.259-5.937,8.19-8.822,11.798l-2.165,2.706c-1.011-1.153-1.894-2.092-2.652-2.814
			C251.771,241.258,250.202,240.139,247.821,238.623z M274.231,262.327c0.216-2.381,0.36-3.716,0.433-4.005
			c0-0.433-0.146-1.694-0.433-3.788c5.267,0.362,8.442,0.541,9.525,0.541h14.396c1.153,0,4.763-0.179,10.824-0.541
			c-0.146,1.082-0.254,1.932-0.325,2.544c-0.072,0.613-0.072,1.028,0,1.244l0.108,1.299l0.217,2.706
			c-3.826-0.36-7.434-0.541-10.824-0.541h-14.396C280.58,261.786,277.405,261.967,274.231,262.327z M280.457,224.336
			c0.551,0.072,1.904-0.071,4.057-0.433c-0.29,1.731-0.452,3.067-0.487,4.005c-0.037,0.938-0.054,2.129-0.054,3.571v8.876h7.685
			v-16.02c0-2.669-0.037-4.365-0.108-5.087l-0.433-5.088c2.117,0.362,5.075,0.362,8.875,0c-0.289,2.311-0.451,4.078-0.486,5.304
			c-0.038,1.229-0.055,2.852-0.055,4.871v16.02h7.252v-8.876c0-0.649-0.072-2.057-0.217-4.221l-0.324-4.654
			c2.263,0.289,3.614,0.451,4.056,0.486c0.441,0.038,1.759-0.125,3.954-0.486c-0.289,2.021-0.452,3.555-0.487,4.6
			c-0.037,1.047-0.054,2.473-0.054,4.275v9.195c0,1.847,0.035,2.983,0.107,3.408l0.434,3.524c-3.856-0.36-6.14-0.542-6.854-0.542
			H283.57c-0.643,0-2.997,0.182-7.066,0.542c0.216-1.497,0.36-2.671,0.433-3.523c0.071-0.853,0.108-1.918,0.108-3.196v-9.3
			c0-1.948-0.037-3.21-0.108-3.788l-0.433-3.896C278.794,224.192,280.111,224.336,280.457,224.336z M295.229,307.354l6.169-2.165
			c4.185-1.444,7.864-3.157,11.04-5.142c3.175-1.983,6.747-5.177,10.716-9.579c-1.228-2.381-2.129-4.238-2.706-5.574
			c-0.578-1.334-1.534-3.95-2.868-7.847c-1.336-3.896-2.544-7.864-3.626-11.906c3.175,0.072,5.988-0.793,8.442-2.598
			c0.866,3.896,1.749,7.433,2.652,10.607c0.901,3.176,2.002,6.206,3.301,9.092c0.649-1.442,1.172-2.706,1.569-3.788
			c0.396-1.083,0.866-2.85,1.407-5.304c0.541-2.452,0.975-4.601,1.299-6.44c0.325-1.84,0.649-4.617,0.975-8.334
			c0.324-3.716,0.522-6.043,0.595-6.981l0.108-5.521h-9.092c-3.32,7.577-5.773,12.918-7.36,16.02
			c-0.938-1.227-1.75-2.165-2.436-2.814c-0.687-0.649-2.364-1.586-5.032-2.814l2.272-3.571c1.731-2.741,3.085-5.417,4.059-8.025
			c0.975-2.607,1.841-5.188,2.598-7.738c0.758-2.551,1.28-4.513,1.57-5.884c0.287-1.37,0.685-3.48,1.19-6.332
			c0.504-2.85,0.828-4.779,0.974-5.791l0.649-4.654c3.102,2.165,6.422,3.501,9.958,4.005l-1.623,5.304
			c-0.217,0.578-0.649,2.057-1.299,4.438c-0.649,2.382-1.661,5.81-3.031,10.283h16.993c0.938,0,3.392-0.18,7.36-0.541
			c-0.217,1.248-0.362,2.196-0.433,2.844c-0.073,0.649-0.092,1.16-0.055,1.536c0.036,0.375,0.198,1.803,0.487,4.278
			c-2.67-0.359-5.087-0.541-7.252-0.541h-1.731c-0.217,3.104-0.362,5.756-0.434,7.956c-0.072,2.201-0.181,4.096-0.324,5.682
			c-0.146,1.589-0.506,4.421-1.082,8.497c-0.579,4.077-1.407,7.83-2.49,11.257c-1.082,3.428-2.706,7.271-4.87,11.527
			c3.03,3.319,6.115,5.972,9.254,7.955c3.139,1.984,5.285,3.193,6.44,3.626l3.896,1.732c-3.464,2.598-6.134,5.845-8.01,9.741
			l-3.571-2.923c-3.681-2.959-8.227-7.108-13.639-12.447c-6.277,5.845-12.593,10.643-18.941,14.396l-4.546,2.706
			c-0.866-1.444-1.715-2.635-2.544-3.571C301.38,311.069,299.053,309.519,295.229,307.354z"/>
		<path fill="#FFFFFF" d="M364.956,289.712c0.144-1.438,0.233-2.488,0.271-3.149c0.035-0.661,0.054-1.304,0.054-1.927
			c-0.072-0.698-0.181-2.434-0.324-5.207c3.247,0.362,6.386,0.541,9.416,0.541h2.706l-0.541-43.078
			c-0.073-3.318-0.146-5.772-0.217-7.36l-0.433-7.252l3.355-0.324c3.464-0.288,7.504-1.551,12.122-3.789l2.706-1.299
			c1.948,3.393,3.066,5.16,3.355,5.304l2.057,2.165l-3.464,0.975l-4.112,0.974c-1.083,0.289-3.32,0.938-6.711,1.948l0.324,12.015
			l4.546,0.108c2.093,0.072,4.654-0.108,7.686-0.542c-0.217,1.155-0.362,2.057-0.434,2.706c-0.072,0.649-0.091,1.21-0.054,1.678
			c0.035,0.471,0.198,1.823,0.487,4.06c-2.238-0.288-4.8-0.469-7.686-0.542l-4.546-0.107l0.217,12.555h4.654
			c2.02,0,4.365-0.179,7.035-0.541c-0.217,1.229-0.343,2.003-0.379,2.327c-0.037,0.325-0.019,1.028,0.055,2.111v1.406l0.324,2.814
			c-2.743-0.36-5.16-0.541-7.252-0.541h-4.438l0.217,12.23h29.656v-8.658h-6.169c-2.887,0-5.99,0.181-9.309,0.541
			c0.144-1.083,0.233-1.786,0.271-2.111c0.035-0.324,0.055-1.028,0.055-2.11v-1.516l-0.325-2.922
			c3.102,0.361,6.097,0.541,8.983,0.541h6.494V255.4h-6.71c-2.454,0-5.16,0.433-8.118,1.299c-0.289-1.153-0.506-1.966-0.649-2.436
			c-0.146-0.469-0.795-2.579-1.948-6.332c0.649-0.217,1.1-0.414,1.353-0.596c0.252-0.179,0.775-0.774,1.57-1.785l1.406-1.624
			c0.36-0.433,1.01-1.551,1.948-3.355c0.938-1.803,1.804-3.68,2.598-5.628h-0.865c-2.311,0-4.691,0.181-7.144,0.541
			c0.144-1.177,0.233-2.082,0.271-2.715c0.035-0.63,0.071-1.187,0.108-1.671c0.035-0.481-0.092-1.87-0.379-4.165
			c2.813,0.289,5.23,0.433,7.252,0.433h4.005c1.299-2.958,2.668-6.746,4.112-11.364l1.083-3.464
			c3.463,1.516,6.603,2.489,9.416,2.923l-1.623,3.03c-2.094,3.825-3.572,6.783-4.438,8.875h6.927c2.525,0,5.482-0.144,8.875-0.433
			c-0.216,1.181-0.361,2.068-0.433,2.662c-0.072,0.596-0.091,1.077-0.054,1.449c0.035,0.372,0.197,1.852,0.486,4.439
			c-3.319-0.36-6.35-0.541-9.092-0.541h-10.174l-7.36,13.635l7.576,0.111v-2.905c0-1.639-0.037-2.757-0.107-3.354l-0.434-3.688
			c2.439,0.372,3.884,0.54,4.333,0.503c0.45-0.038,1.966-0.205,4.543-0.503c-0.289,1.641-0.452,2.889-0.487,3.744
			c-0.037,0.856-0.054,1.881-0.054,3.073v3.129h3.896c0.576,0,2.633-0.18,6.169-0.541c-0.216,1.174-0.343,2.185-0.379,3.032
			c-0.037,0.848,0.126,2.434,0.487,4.761c-3.753-0.36-6.025-0.541-6.818-0.541h-3.355v8.334h3.571c2.092,0,4.33-0.18,6.711-0.541
			c-0.217,1.299-0.344,2.272-0.379,2.922c-0.037,0.649-0.072,1.191-0.108,1.624c-0.037,0.433,0.125,1.805,0.487,4.113
			c-2.454-0.36-4.8-0.541-7.035-0.541h-3.247v8.658h23.055l0.433-10.715h-3.247c-2.165,0-4.835,0.146-8.01,0.433
			c0.144-1.227,0.233-2.146,0.271-2.76c0.035-0.612,0.071-1.172,0.108-1.678c0.035-0.504-0.092-1.84-0.379-4.005
			c3.175,0.289,5.772,0.433,7.793,0.433H447l0.433-12.664h-3.464c-2.31,0-4.907,0.182-7.793,0.542
			c0.144-1.252,0.233-2.194,0.271-2.826c0.036-0.631,0.071-1.169,0.108-1.615c0.035-0.445-0.091-1.851-0.379-4.218
			c2.669,0.361,5.304,0.541,7.901,0.541h3.572l0.324-12.53l-3.896,0.108c-3.247,0.142-5.917,0.321-8.01,0.534
			c0.145-1.285,0.233-2.247,0.271-2.89c0.036-0.644,0.071-1.25,0.108-1.822c0.036-0.571-0.127-1.965-0.486-4.182
			c2.957,0.361,5.699,0.541,8.226,0.541h4.979c2.669,0,5.483-0.18,8.443-0.541c-0.217,3.072-0.416,5.858-0.596,8.355
			c-0.181,2.498-0.271,4.176-0.271,5.032l-1.299,45.926h3.247c3.03,0,6.277-0.179,9.741-0.541c-0.146,1.451-0.235,2.584-0.271,3.401
			c-0.037,0.816-0.072,1.556-0.108,2.215c-0.037,0.662-0.019,1.069,0.055,1.225l0.324,3.442
			c-10.969-0.505-17.247-0.758-18.833-0.758h-63.103C385.051,288.954,377.871,289.207,364.956,289.712z M368.095,308.437
			l3.571-1.299c5.123-1.877,10.12-4.348,14.991-7.414s8.243-5.466,10.12-7.198l2.382-2.164c3.967,3.247,6.89,5.376,8.767,6.386
			l-4.654,2.598c-1.011,0.576-8.515,5.267-22.513,14.07l-4.654,2.923C373.723,313.451,371.053,310.817,368.095,308.437z
			 M425.353,297.938c2.598-2.02,4.979-4.438,7.144-7.252l31.605,18.726c-3.031,2.598-5.845,5.555-8.442,8.875l-2.706-2.381
			c-3.537-3.031-7.831-6.17-12.881-9.417c-5.052-3.247-8.84-5.558-11.364-6.927L425.353,297.938z"/>
		<path fill="#FFFFFF" d="M484.363,234.511c3.318,0.649,6.603,1.082,9.85,1.299l-0.975,7.144c-0.145,1.082-0.451,3.842-0.92,8.28
			c-0.47,4.438-0.74,7.271-0.812,8.496l-0.324,4.979c-3.177-0.505-6.603-0.794-10.283-0.866l0.866-3.247
			c0.576-2.236,0.991-4.04,1.245-5.412c0.252-1.37,0.486-3.193,0.703-5.466c0.217-2.273,0.379-4.257,0.487-5.953
			c0.108-1.694,0.162-3.806,0.162-6.332V234.511z M496.378,316.446c0.216-3.753,0.414-6.981,0.595-9.688
			c0.18-2.706,0.271-5.033,0.271-6.981v-74.792c0-2.958-0.072-5.123-0.216-6.494l-0.541-5.521c4.188,0.362,7.579,0.362,10.174,0
			c-0.289,2.527-0.506,4.746-0.649,6.657c-0.146,1.912-0.217,3.698-0.217,5.357v10.282c2.475-0.433,4.949-1.153,7.425-2.164
			l6.77,18.508l-4.149,0.542c6.987,0.433,11.392,0.649,13.211,0.649h14.303v-7.686h-14.72c-2.598,0-5.341,0.182-8.227,0.542
			c0.144-1.083,0.233-1.93,0.271-2.544c0.036-0.612,0.071-1.137,0.108-1.569c0.035-0.434-0.091-1.659-0.379-3.681
			c4.185,0.362,6.928,0.542,8.227,0.542h14.72v-7.036h-14.828c-3.177,0-6.567,0.254-10.175,0.758
			c0.144-1.047,0.233-1.724,0.271-2.027c0.036-0.305,0.055-0.933,0.055-1.883v-1.525l-0.325-2.682
			c6.349,0.433,9.741,0.649,10.175,0.649h14.828v-4.222c0-1.803-0.037-2.923-0.108-3.355l-0.433-3.03
			c3.176,0.505,6.388,0.505,9.633,0c-0.361,3.176-0.541,5.304-0.541,6.386v4.222h16.235c3.103,0,6.603-0.217,10.499-0.649
			c-0.216,1.246-0.361,2.191-0.433,2.836c-0.072,0.645-0.091,1.204-0.054,1.678c0.035,0.474,0.197,1.676,0.486,3.604
			c-4.401-0.504-7.9-0.758-10.499-0.758h-16.235v7.036h14.071c1.226,0,4.221-0.18,8.983-0.542c-0.146,1.155-0.254,2.04-0.324,2.652
			c-0.073,0.614-0.073,1.065,0,1.353l0.107,1.299l0.217,2.49c-3.393-0.36-6.386-0.542-8.983-0.542h-14.071v7.686h19.375
			c0.865,0,4.941-0.217,12.23-0.649c-0.217,1.299-0.362,2.291-0.433,2.977c-0.073,0.687-0.092,1.263-0.055,1.731
			c0.036,0.47,0.198,1.858,0.487,4.167c-5.268-0.433-9.346-0.649-12.23-0.649H524.8c-2.161,0-5.977,0.217-11.446,0.649
			c0.071-1.37,0.143-2.561,0.215-3.571c0.071-1.01,0.108-1.659,0.108-1.948l-0.108-2.598l-3.347,1.406l-0.324-2.056
			c-0.434-2.453-0.864-4.744-1.296-6.874c-0.433-2.127-1.043-4.094-1.835-5.898l-0.973-2.057v62.345c0,1.948,0.108,4.617,0.325,8.01
			l0.541,8.659C502.953,315.868,499.526,315.868,496.378,316.446z M520.623,316.446c0.144-1.805,0.306-3.518,0.487-5.142
			c0.179-1.623,0.271-3.301,0.271-5.033V273.26c0-0.577-0.073-1.841-0.217-3.789l-0.325-4.221c3.601,0.289,6.662,0.433,9.182,0.433
			h33.483c2.376,0,5.545-0.144,9.506-0.433c-0.289,1.805-0.451,3.192-0.487,4.167c-0.037,0.974-0.054,2.256-0.054,3.843v32.796
			c0,2.598-0.231,4.491-0.695,5.682c-0.463,1.191-1.426,2.345-2.887,3.464c-1.461,1.118-6.725,2.219-15.793,3.302
			c-0.289-2.598-0.649-4.564-1.082-5.899c-0.433-1.336-1.769-3.409-4.005-6.224c4.689,1.516,8.768,2.2,12.23,2.057
			c2.453-0.072,3.681-1.371,3.681-3.896v-5.628h-33.986v7.359v5.521l0.649,4.654C527.226,315.868,523.907,315.868,520.623,316.446z
			 M529.932,279.646h33.986v-6.386h-33.986V279.646z M529.932,292.201h33.986v-5.845h-33.986V292.201z"/>
	</g>
</g>
<g id="图层_3">
	<path fill="#FFFFFF" d="M81.895,109.767l-4.135,14.475c0,0-8.684-9.305-23.572-7.237c-14.887,2.067-10.545,9.098-4.962,9.719
		c5.583,0.619,23.365,0.619,26.467,12.199c3.102,11.578-25.64,34.944-62.445,19.85l4.135-15.301c0,0,9.512,9.718,23.985,9.511
		c14.474-0.206,16.955-7.649,9.305-10.131c-7.65-2.482-24.314-1.356-27.293-12.613C19.657,116.177,44.47,95.707,81.895,109.767z"/>
	<path fill="#FFFFFF" d="M90.58,112.868c0,0,8.685,1.654,21.711,1.447c0,0-19.23,70.302-34.118,80.848
		C78.173,195.163,73.625,180.276,90.58,112.868z"/>
	<path fill="#FFFFFF" d="M108.81,163.695h20.023l12.199-39.661c0,0,5.169-5.376,15.714-4.756s5.997,8.892,5.376,11.786
		s-9.925,32.631-9.925,32.631h19.437l11.373-38.421c0,0,7.563-17.286-12.319-19.758c-23.246-2.891-44.957,7.352-44.957,7.352
		L108.81,163.695z"/>
	<path fill="#FFFFFF" d="M201.616,108.526l-3.722,12.406c0,0,12.406-4.55,25.019-3.516c12.613,1.034,11.166,5.376,11.166,6.203
		s-7.03,23.985-7.03,23.985s-6.203,5.376-16.542,5.376c-10.338,0-9.097-17.162,13.027-16.335l2.895-9.924
		c0,0-25.226-0.827-37.012,11.578c-11.786,12.407-3.309,25.769,12.406,25.395c15.715-0.375,36.392-5.958,43.215-15.263l8.064-26.673
		c0,0,5.169-11.786-11.786-15.302C224.361,102.944,201.616,108.526,201.616,108.526z"/>
	<g>
		<path fill="#FFFFFF" d="M322.789,154.016l1.101-9.537l2.794-33.511l0.973-14.557c4.019,0.055,6.955,0.084,8.81,0.084
			c1.489,0,4.201-0.029,8.136-0.084c0.45,2.277,0.789,3.896,1.015,4.853c0.226,0.956,0.662,2.491,1.312,4.601
			c0.648,2.109,1.479,4.672,2.496,7.68c1.494,4.559,2.834,9.06,4.018,13.504l3.215,12.07l5.645-15.487l8.213-20.132
			c0.281-0.675,0.569-1.453,0.864-2.343c0.294-0.885,0.793-2.468,1.495-4.745c3.351,0.055,6.333,0.084,8.953,0.084
			c1.744,0,4.531-0.029,8.359-0.084c-0.394,8.103-0.689,17.056-0.884,26.86c-0.196,9.806-0.294,17.129-0.294,21.966
			c0,2.336,0.027,5.263,0.084,8.778c-2.787-0.055-4.685-0.083-5.699-0.083c-1.463,0-3.405,0.028-5.824,0.083
			c0.167-2.869,0.277-5.234,0.334-7.088l0.713-25.11c0.082-3.547,0.124-7.033,0.124-10.467l-0.042-3.419l-15.513,41.063
			l-1.808,5.021c-2.74-0.055-4.62-0.083-5.637-0.083c-1.271,0-3.264,0.028-5.977,0.083l-7.263-25.995
			c-0.253-0.931-0.846-2.872-1.773-5.824l-2.618-8.611c-0.253-0.813-0.443-1.482-0.571-2.003c-0.125-0.52-0.4-1.68-0.822-3.481
			l-0.549,5.401c-0.142,1.719-0.353,4.588-0.634,8.609l-1.647,26.166c-0.057,1.293-0.101,3.206-0.128,5.738l-5.441-0.083
			C327.387,153.933,325.546,153.961,322.789,154.016z"/>
		<path fill="#FFFFFF" d="M400.484,154.016l1.136-14.688l0.839-18.357l0.548-18.273c0.027-0.785,0.042-2.881,0.042-6.286
			c3.122,0.055,6.064,0.084,8.821,0.084c2.054,0,4.763-0.042,8.126-0.127c3.361-0.083,6.268-0.125,8.717-0.125
			c3.32,0,6.394,0.196,9.223,0.591c2.827,0.394,5.296,1.131,7.408,2.213c2.109,1.086,3.938,2.442,5.486,4.074
			c1.546,1.632,2.813,3.438,3.799,5.421c0.985,1.984,1.736,4.194,2.258,6.627c0.521,2.436,0.78,4.917,0.78,7.45
			c0,4.84-0.836,9.446-2.511,13.821c-1.674,4.374-4.17,7.989-7.49,10.846c-3.32,2.855-6.999,4.69-11.036,5.505
			c-4.037,0.818-8.616,1.225-13.737,1.225l-14.348-0.083C407.644,153.933,404.956,153.961,400.484,154.016z M413.432,145.027
			c2.306,0.113,4.586,0.169,6.837,0.169c2.561,0,4.933-0.127,7.113-0.379c2.183-0.255,4.062-0.656,5.636-1.204
			c1.577-0.547,3.16-1.513,4.749-2.89c1.59-1.379,2.893-2.975,3.905-4.791c1.013-1.815,1.786-3.831,2.321-6.058
			c0.534-2.22,0.803-4.483,0.803-6.794c0-4.22-0.717-7.686-2.151-10.399c-1.438-2.717-3.328-4.673-5.678-5.867
			c-2.348-1.195-5.971-1.793-10.866-1.793c-3.181,0-6.823,0.055-10.932,0.168L413.432,145.027z"/>
		<path fill="#FFFFFF" d="M468.175,120.51c0.395-2.025,0.64-3.448,0.738-4.266c0.1-0.813,0.274-2.052,0.529-3.712
			c3.824-0.901,7.201-1.534,10.128-1.899c2.926-0.365,5.753-0.55,8.483-0.55c3.094,0,5.936,0.359,8.523,1.076
			c2.588,0.718,4.613,1.864,6.077,3.441c1.463,1.576,2.195,3.841,2.195,6.794c0,1.603-0.225,5.689-0.67,12.261
			c-0.447,6.567-0.714,13.356-0.799,20.36c-2.141-0.055-4.111-0.083-5.912-0.083c-1.719,0-3.731,0.028-6.04,0.083
			c0.37-3.402,0.67-7.344,0.897-11.815l0.554-10.509c-1.069,0.704-1.886,1.194-2.449,1.476c-0.564,0.285-1.197,0.543-1.901,0.783
			c-0.705,0.238-1.944,0.604-3.717,1.098c-1.773,0.491-3.195,0.921-4.267,1.286c-1.068,0.365-2.033,0.781-2.893,1.243
			c-0.86,0.465-1.585,0.986-2.175,1.564c-0.593,0.575-1.021,1.18-1.289,1.813c-0.269,0.633-0.4,1.317-0.4,2.048
			c0,1.183,0.344,2.2,1.033,3.06c0.688,0.859,1.555,1.458,2.597,1.793c1.04,0.34,2.263,0.507,3.669,0.507
			c0.902,0,1.851-0.07,2.851-0.209c0.998-0.143,2.342-0.494,4.03-1.058c-0.592,1.604-1.281,3.997-2.067,7.177
			c-1.998,0.336-3.589,0.546-4.771,0.633c-1.181,0.084-2.277,0.126-3.29,0.126c-3.547,0-6.457-0.479-8.736-1.435
			s-3.962-2.479-5.043-4.559c-1.085-2.081-1.626-4.178-1.626-6.287c0-1.211,0.212-2.407,0.633-3.59
			c0.422-1.182,1.043-2.265,1.857-3.25c0.818-0.982,1.874-1.932,3.168-2.847c1.296-0.913,3.168-1.799,5.617-2.658
			s5.687-1.726,9.712-2.598c1.069-0.224,2.183-0.498,3.336-0.82c1.153-0.323,2.077-0.64,2.767-0.95
			c0.688-0.311,1.288-0.711,1.793-1.202c0.508-0.494,0.881-1.008,1.121-1.541c0.238-0.536,0.358-1.083,0.358-1.647
			c0-1.095-0.358-2.025-1.076-2.785c-0.72-0.759-1.647-1.285-2.789-1.583c-1.141-0.294-2.4-0.442-3.779-0.442
			C480.029,116.836,474.371,118.06,468.175,120.51z"/>
		<path fill="#FFFFFF" d="M540.258,145.196c-0.34,1.547-0.874,4.416-1.604,8.609c-2.363,0.533-4.221,0.873-5.572,1.012
			c-1.35,0.142-2.616,0.213-3.797,0.213c-2.082,0-3.946-0.197-5.593-0.592c-1.645-0.394-3.002-1.091-4.072-2.09
			c-1.069-0.998-1.794-2.165-2.172-3.502c-0.38-1.334-0.571-2.72-0.571-4.158c0-0.365,0.015-0.855,0.042-1.477
			c0.029-0.617,0.141-2.617,0.338-5.993l0.967-17.556h-6.073c0.142-1.687,0.267-4.4,0.38-8.146h6.356
			c0.168-1.631,0.336-4.4,0.504-8.313l4.988-0.97c1.042-0.196,3.059-0.661,6.046-1.396c-0.202,3.8-0.316,7.36-0.347,10.678h10.728
			c-0.196,3.8-0.295,6.514-0.295,8.146h-10.763c-0.592,11.453-0.886,18.079-0.886,19.878c0,1.746,0.188,3.096,0.568,4.052
			c0.38,0.957,0.991,1.645,1.836,2.068c0.845,0.42,1.745,0.633,2.702,0.633c0.704,0,1.442-0.059,2.216-0.167
			C536.958,146.014,538.314,145.702,540.258,145.196z"/>
		<path fill="#FFFFFF" d="M549.288,120.51c0.394-2.025,0.64-3.448,0.738-4.266c0.098-0.813,0.274-2.052,0.527-3.712
			c3.826-0.901,7.201-1.534,10.13-1.899c2.924-0.365,5.751-0.55,8.481-0.55c3.096,0,5.937,0.359,8.523,1.076
			c2.589,0.718,4.615,1.864,6.078,3.441c1.464,1.576,2.195,3.841,2.195,6.794c0,1.603-0.225,5.689-0.671,12.261
			c-0.447,6.567-0.714,13.356-0.798,20.36c-2.14-0.055-4.11-0.083-5.911-0.083c-1.719,0-3.732,0.028-6.041,0.083
			c0.37-3.402,0.669-7.344,0.896-11.815l0.554-10.509c-1.069,0.704-1.885,1.194-2.448,1.476c-0.563,0.285-1.196,0.543-1.901,0.783
			c-0.704,0.238-1.943,0.604-3.717,1.098c-1.774,0.491-3.195,0.921-4.267,1.286c-1.069,0.365-2.033,0.781-2.893,1.243
			c-0.859,0.465-1.586,0.986-2.175,1.564c-0.594,0.575-1.021,1.18-1.289,1.813c-0.268,0.633-0.401,1.317-0.401,2.048
			c0,1.183,0.345,2.2,1.035,3.06c0.688,0.859,1.553,1.458,2.596,1.793c1.04,0.34,2.263,0.507,3.67,0.507
			c0.901,0,1.85-0.07,2.85-0.209c0.998-0.143,2.342-0.494,4.029-1.058c-0.59,1.604-1.279,3.997-2.067,7.177
			c-1.997,0.336-3.587,0.546-4.77,0.633c-1.182,0.084-2.277,0.126-3.291,0.126c-3.545,0-6.457-0.479-8.736-1.435
			s-3.96-2.479-5.043-4.559c-1.084-2.081-1.624-4.178-1.624-6.287c0-1.211,0.211-2.407,0.633-3.59
			c0.422-1.182,1.041-2.265,1.857-3.25c0.817-0.982,1.872-1.932,3.168-2.847c1.296-0.913,3.168-1.799,5.617-2.658
			c2.448-0.859,5.686-1.726,9.711-2.598c1.07-0.224,2.183-0.498,3.336-0.82c1.152-0.323,2.078-0.64,2.768-0.95
			c0.688-0.311,1.287-0.711,1.793-1.202c0.507-0.494,0.88-1.008,1.119-1.541c0.238-0.536,0.358-1.083,0.358-1.647
			c0-1.095-0.358-2.025-1.076-2.785c-0.718-0.759-1.647-1.285-2.788-1.583c-1.14-0.294-2.4-0.442-3.779-0.442
			C561.142,116.836,555.482,118.06,549.288,120.51z"/>
	</g>
	<circle fill="#FFFFFF" cx="288.58" cy="131.04" r="6.617"/>
</g>
</svg>
