<?xml version="1.0" encoding="utf-8"?>
<!-- Generator: Adobe Illustrator 16.0.0, SVG Export Plug-In . SVG Version: 6.00 Build 0)  -->
<!DOCTYPE svg PUBLIC "-//W3C//DTD SVG 1.1//EN" "http://www.w3.org/Graphics/SVG/1.1/DTD/svg11.dtd">
<svg version="1.1" id="图层_1" xmlns="http://www.w3.org/2000/svg" xmlns:xlink="http://www.w3.org/1999/xlink" x="0px" y="0px"
	 width="595.281px" height="215.741px" viewBox="0 0 595.281 215.741" enable-background="new 0 0 595.281 215.741"
	 xml:space="preserve">
<g id="图层_4">
</g>
<path fill="#FFFFFF" d="M157.259,48.731c-5.277-4.251-20.376,5.277-23.162,7.476c-2.785,2.198-8.355,6.596-10.7,3.812
	c-2.346-2.788,0.147-8.502,4.691-15.979c4.543-7.476,1.473-9.096,1.473-9.096c-7.074-2.994-18.477,6.75-23.667,13.737
	c-3.108,4.18-8.571,9.93-12.653,6.938c-4.08-2.994,0.679-10.883,2.585-18.092c1.904-7.211-1.115-10.166-9.522-6.258
	c-12.015,5.588-20.813,28.976-25.71,27.615c-4.897-1.361,0-15.644-5.305-15.508c-5.306,0.136-8.707,7.26-11.427,13.739
	c-0.948,2.261-2.993,12.105-7.346,11.833c-4.351-0.27-2.855-7.753-2.855-7.753c0.133-0.906,1.342-4.989-2.323-4.989
	s-6.744,9.38-9.969,15.685c-3.126,6.113-12.314,26.24-8.648,39.874c3.664,13.631,25.506,30.638,57.462,29.906
	c31.957-0.737,66.112-11.875,76.813-31.668c10.702-19.788-0.587-31.221-1.026-37.966C145.532,65.295,162.535,52.982,157.259,48.731z
	 M73.997,134.189c-17.737,1.03-46.029-5.128-45.59-28.142c0.215-11.238,15.979-30.199,46.176-32.25
	c39.304-2.67,50.355,16.754,50.28,27.706C124.716,122.903,91.733,133.163,73.997,134.189z"/>
<path fill="#FFFFFF" d="M74.437,86.551c-16.565,0-25.918,13.192-25.8,22.426c0.151,11.946,8.688,17.816,19.056,18.032
	c10.408,0.217,21.838-8.633,24.629-16.563C95.153,102.39,91.294,86.551,74.437,86.551z M57.284,114.404
	c-1.537-8.063,5.646-9.969,5.646-9.969c5.276-1.541,8.722,2.131,9.307,6.156C73.555,119.677,58.746,122.055,57.284,114.404z
	 M70.999,106.176c-0.697-3.645,2.55-4.508,2.55-4.508c2.386-0.696,3.944,0.964,4.209,2.784
	C78.356,108.563,71.658,109.636,70.999,106.176z"/>
<path fill="#FFFFFF" d="M60.201,145.422c0,0,13.487,1.565,19.156,0.977c0,0-0.782,8.206-0.782,12.707
	c0,4.493,4.886,28.534-13.096,28.338c-17.981-0.188-15.244-12.896-12.899-17.979C54.924,164.385,60.983,152.264,60.201,145.422z"/>
<g>
	<path fill="#FFFFFF" d="M197.688,90.635v-5.959h-19.795v-8.939h8.94l-3.512-8.939h-4.896v-8.939h17.133v-5.215h21.178v5.215h17.134
		v8.939h-5.001l-3.405,8.939h8.938v8.939h-19.795v5.959h19.263v9.045h-19.263v32.033h-16.919l-3.194-7.342l-0.424,7.342h-12.771
		l-3.405-6.813h2.979l1.703-22.347h13.516l-1.49,21.389h3.086V99.681h-19.263v-9.045H197.688z M203.222,75.737h5.853l3.406-8.939
		h-12.664L203.222,75.737z M218.228,131.714l-2.023-29.16h13.516l1.704,22.347h2.979l-3.405,6.813H218.228z M260.902,131.714V85.315
		h-5.535v46.399h-20.219v-11.282h2.873V53.601h45.122l-3.192,9.046h-24.584v12.77h27.776v9.897h-4.788v46.399H260.902z"/>
	<path fill="#FFFFFF" d="M288.456,131.396l-4.256-9.365h4.788l4.256-22.775h20.541l-6.278,32.14H288.456z M292.181,70.522
		l-6.384-17.666h20.539l4.046,10.854h3.403l-3.62,6.812H292.181z M292.181,93.722l-6.384-17.667h20.539l4.046,10.962h3.403
		l-3.62,6.705H292.181z M316.337,131.926V55.73h23.626v-3.086h20.754v3.086h26.921v41.185H366.89V81.376h-29.801v5.641h29.801
		l-3.303,9.897h-26.498v24.9h11.07l-4.791,10.112H316.337z M337.089,71.48h29.801v-5.534h-29.801V71.48z M389.767,123.413
		l-4.47,8.513h-20.112l-26.496-32.989h21.601l6.277,7.13l3.833-7.024h18.303l-10.642,20.008l3.938,4.362H389.767z"/>
	<path fill="#FFFFFF" d="M423.457,94.083l-2.551,5.037h-15.234v-0.808l-4.599,7.524h2.238v24.126h-9.019v-20.768h-2.427
		l-1.613-5.411h2.547l4.165-7.088h-5.099l-1.613-5.471h2.547l4.416-7.399h9.64l-1.122,1.803h7.276v8.457h1.492v-9.7h7.401v9.7
		H423.457z M405.671,96.323V85.813l-6.404,10.509H405.671z M429.674,110.128v14.609h2.238l-1.681,5.225h-8.951v-14.614h-6.096
		v14.614h-9.577v-5.225h1.372v-14.609H429.674z M430.544,101.732v5.223h-24.189v-5.223H430.544z M423.457,99.12h7.34V85.627h-7.34
		V99.12z M452.247,87.616h-10.945l0.936-3.918h-8.456l-2.176,9.142h11.936c-0.125,6.094-0.746,11.379-1.926,15.733
		c-1.247-4.23-1.992-9.204-2.113-14.987h-7.03c0.188,10.074,1.617,17.848,5.1,23.938c-1.492,2.051-3.23,3.606-5.225,4.791v7.709
		c3.856-1.989,6.904-4.228,9.394-6.837c2.548,2.672,5.72,4.848,9.573,6.837v-7.709c-2.052-1.184-3.854-2.797-5.407-4.853
		c3.355-6.279,4.598-14.238,4.723-24.622h1.618V87.616z"/>
	<path fill="#FFFFFF" d="M478.305,86.932l1.681-2.86h6.905l-1.556,2.86h8.705v4.166h-10.943l-1.681,3.048h7.708v3.73h4.916
		l-0.997,4.229h-3.919v2.611h5.475v4.165h-5.475v3.794h11.629v-3.794h-4.911v-5.409h4.911v-3.979h-4.911v-5.41h4.911v-3.855h-5.1
		v-5.286h16.854v27.733h1.867v5.412h-61.811v-5.412h2.489V84.942h18.842l-2.056,5.286h-5.1v3.855h5.35v5.41h-5.35v3.979h5.35v5.409
		h-5.35v3.794h14.552v-3.794h-8.206v-4.165h8.206v-2.611h-8.331v-5.909l2.922-5.099h-2.237v-4.166H478.305z M475.074,119.204
		l-4.603,10.136h-12.996l-2.422-4.912h3.419l2.364-5.225H475.074z M481.292,97.876v-3.419l-1.865,3.419H481.292z M506.103,119.204
		l2.363,5.225h3.419l-2.427,4.912h-13.058l-4.537-10.136H506.103z"/>
	<path fill="#FFFFFF" d="M514.875,127.784V86.373h8.956v41.412H514.875z M537.825,91.844v7.338h-2.302v30.842h-9.577v-46.45h9.577
		v8.27H537.825z M575.751,85.813v5.41h-12.933v1.304h11.258v5.348h-11.258v1.368h13.555v5.348h-37.433v-5.348h13.555v-1.368h-11.252
		v-5.348h11.252v-1.304h-12.933v-5.41h12.933v-2.239h10.323v2.239H575.751z M574.077,105.959v23.939h-12.129l-0.929-3.977h2.297
		v-1.493h-11.567v5.47h-10.505v-23.939H574.077z M563.316,110.995h-11.567v2.113h11.567V110.995z M551.749,119.825h11.567v-2.114
		h-11.567V119.825z"/>
</g>
<g>
	<path fill="#FFFFFF" d="M400.62,71.337l-4.685-16.499h2.672l2.427,9.523l0.896,3.542l0.809-3.401l2.422-9.664h2.668l2.268,9.57
		l0.771,3.153l0.87-3.185l2.606-9.538h2.522l-4.763,16.499h-2.691l-2.437-9.881l-0.578-2.812l-3.08,12.693H400.62z"/>
	<path fill="#FFFFFF" d="M418.951,77.69l-0.285-2.625c0.573,0.166,1.064,0.249,1.475,0.249c0.549,0,1.001-0.099,1.358-0.295
		c0.354-0.198,0.654-0.503,0.886-0.917c0.081-0.146,0.423-1.06,1.021-2.741l-5.808-16.523h2.787l3.189,9.549
		c0.395,1.191,0.765,2.464,1.102,3.819c0.294-1.283,0.641-2.536,1.051-3.758l3.259-9.61h2.591l-5.782,16.778
		c-0.762,2.175-1.363,3.628-1.802,4.357c-0.438,0.731-0.934,1.256-1.492,1.578c-0.554,0.321-1.186,0.481-1.883,0.481
		C420.125,78.032,419.568,77.918,418.951,77.69z"/>
	<path fill="#FFFFFF" d="M443.454,77.659v-8.077c-0.408,0.632-0.981,1.144-1.709,1.537c-0.731,0.394-1.464,0.591-2.2,0.591
		c-1.82,0-3.395-0.767-4.729-2.299c-1.328-1.533-1.998-3.692-1.998-6.479c0-2.424,0.563-4.44,1.685-6.05
		c1.122-1.61,2.706-2.416,4.763-2.416c0.948,0,1.786,0.214,2.523,0.644c0.735,0.43,1.372,1.075,1.907,1.935v-2.207h2.329v22.821
		H443.454z M435.466,63.042c0,2.143,0.418,3.741,1.262,4.792c0.837,1.051,1.844,1.577,3.009,1.577c1.041,0,1.965-0.506,2.77-1.516
		c0.803-1.008,1.207-2.513,1.207-4.513c0-2.268-0.423-3.953-1.271-5.055c-0.843-1.104-1.854-1.656-3.019-1.656
		c-1.064,0-1.988,0.516-2.779,1.546C435.861,59.249,435.466,60.856,435.466,63.042z"/>
	<path fill="#FFFFFF" d="M450.913,71.337v-3.185h2.942v3.185H450.913z"/>
	<path fill="#FFFFFF" d="M457.289,66.397l2.575-0.435c0.154,1.165,0.563,2.03,1.242,2.598c0.674,0.566,1.57,0.851,2.691,0.851
		c1.118,0,1.984-0.247,2.595-0.738c0.612-0.492,0.916-1.116,0.916-1.872c0-0.653-0.26-1.16-0.789-1.522
		c-0.362-0.25-1.238-0.561-2.624-0.932c-2.008-0.549-3.352-1.017-4.031-1.399c-0.679-0.382-1.203-0.895-1.574-1.538
		c-0.376-0.642-0.563-1.371-0.563-2.189c0-1.409,0.51-2.554,1.526-3.433c1.016-0.88,2.422-1.321,4.223-1.321
		c1.132,0,2.128,0.181,2.984,0.543c0.858,0.364,1.513,0.85,1.971,1.461c0.457,0.61,0.771,1.486,0.943,2.625l-2.518,0.372
		c-0.236-1.802-1.34-2.702-3.313-2.702c-1.122,0-1.955,0.199-2.504,0.596c-0.549,0.396-0.822,0.905-0.822,1.523
		c0,0.608,0.264,1.088,0.789,1.438c0.313,0.206,1.252,0.537,2.807,0.99c2.139,0.603,3.525,1.083,4.15,1.44
		c0.632,0.357,1.117,0.846,1.469,1.462c0.347,0.618,0.521,1.353,0.521,2.203c0,1.577-0.564,2.853-1.69,3.829
		c-1.127,0.975-2.662,1.462-4.612,1.462C459.994,71.71,457.875,69.939,457.289,66.397z"/>
	<path fill="#FFFFFF" d="M472.999,51.778v-3.215h2.577v3.215H472.999z M472.999,71.337V54.838h2.577v16.499H472.999z"/>
	<path fill="#FFFFFF" d="M479.534,71.337V54.838h2.331v2.33c0.557-0.905,1.246-1.583,2.055-2.03c0.81-0.448,1.738-0.672,2.789-0.672
		c0.813,0,1.569,0.142,2.262,0.428c0.693,0.284,1.253,0.657,1.681,1.118c0.424,0.461,0.741,1.06,0.953,1.794
		c0.208,0.735,0.313,1.864,0.313,3.387v10.145h-2.576V61.29c0-1.213-0.115-2.099-0.347-2.66c-0.236-0.56-0.602-0.993-1.097-1.299
		c-0.497-0.305-1.07-0.458-1.725-0.458c-1.237,0-2.224,0.409-2.961,1.229c-0.737,0.819-1.103,2.224-1.103,4.214v9.02H479.534z"/>
	<path fill="#FFFFFF" d="M505.824,69.301c-0.862,0.798-1.762,1.399-2.697,1.802c-0.934,0.404-1.901,0.606-2.908,0.606
		c-1.589,0-2.854-0.424-3.799-1.275c-0.948-0.849-1.42-1.993-1.42-3.433c0-0.952,0.222-1.796,0.664-2.532
		c0.448-0.735,1.055-1.31,1.825-1.725c0.77-0.414,1.936-0.719,3.501-0.916c2.103-0.273,3.645-0.6,4.626-0.979l0.016-0.715
		c0-1.128-0.226-1.921-0.684-2.376c-0.641-0.664-1.628-0.994-2.957-0.994c-1.203,0-2.104,0.221-2.702,0.664
		c-0.592,0.441-1.03,1.272-1.309,2.49l-2.542-0.373c0.36-1.771,1.098-3.062,2.2-3.869c1.102-0.808,2.682-1.211,4.737-1.211
		c1.599,0,2.855,0.266,3.766,0.799c0.91,0.535,1.482,1.194,1.725,1.981c0.239,0.787,0.36,1.937,0.36,3.449v3.728
		c0,2.61,0.054,4.254,0.164,4.933c0.111,0.677,0.332,1.339,0.659,1.98h-2.7C506.083,70.768,505.905,70.088,505.824,69.301z
		 M505.616,63.056c-0.947,0.415-2.354,0.767-4.222,1.057c-1.089,0.167-1.846,0.355-2.277,0.567
		c-0.435,0.211-0.766,0.512-1.007,0.901c-0.24,0.388-0.361,0.835-0.361,1.343c0,0.788,0.274,1.416,0.823,1.888
		c0.549,0.47,1.31,0.706,2.277,0.706c0.925,0,1.762-0.211,2.514-0.637c0.756-0.425,1.319-0.991,1.69-1.7
		c0.376-0.709,0.563-1.743,0.563-3.101V63.056z"/>
	<path fill="#FFFFFF" d="M513.06,71.337v-3.185h2.942v3.185H513.06z"/>
	<path fill="#FFFFFF" d="M530.419,65.294l2.537,0.357c-0.289,1.967-1.026,3.47-2.196,4.505c-1.175,1.036-2.585,1.553-4.231,1.553
		c-1.998,0-3.642-0.728-4.932-2.183c-1.29-1.455-1.935-3.607-1.935-6.455c0-2.869,0.65-5.02,1.954-6.455
		c1.301-1.434,2.976-2.151,5.017-2.151c1.576,0,2.904,0.435,3.988,1.305c1.078,0.871,1.771,2.175,2.075,3.915l-2.509,0.405
		c-0.24-1.114-0.67-1.947-1.276-2.498c-0.607-0.552-1.339-0.827-2.19-0.827c-1.271,0-2.325,0.499-3.159,1.499
		c-0.837,1-1.251,2.586-1.251,4.762c0,2.248,0.398,3.873,1.198,4.877c0.799,1.005,1.824,1.507,3.072,1.507
		c0.981,0,1.82-0.335,2.514-1.003C529.788,67.74,530.231,66.702,530.419,65.294z"/>
	<path fill="#FFFFFF" d="M534.166,63.087c0-2.848,0.674-4.996,2.021-6.446c1.348-1.451,3.059-2.175,5.124-2.175
		c2.031,0,3.73,0.725,5.098,2.175c1.368,1.45,2.048,3.542,2.048,6.275c0,2.962-0.67,5.168-2.014,6.618
		c-1.343,1.451-3.053,2.175-5.132,2.175c-2.042,0-3.746-0.728-5.104-2.183C534.843,68.072,534.166,65.926,534.166,63.087z
		 M536.808,63.08c0,2.136,0.438,3.725,1.315,4.767c0.876,1.042,1.964,1.563,3.259,1.563c1.213,0,2.254-0.526,3.126-1.579
		c0.87-1.052,1.304-2.637,1.304-4.751c0-2.126-0.438-3.71-1.314-4.753c-0.876-1.041-1.96-1.562-3.254-1.562
		c-1.229,0-2.273,0.524-3.136,1.57C537.242,59.384,536.808,60.965,536.808,63.08z"/>
	<path fill="#FFFFFF" d="M551.523,71.337V54.838h2.311v2.3c0.516-0.854,1.172-1.515,1.975-1.978
		c0.809-0.463,1.687-0.694,2.644-0.694c1.074,0,1.979,0.245,2.722,0.734c0.735,0.489,1.265,1.203,1.578,2.14
		c0.612-0.958,1.31-1.677,2.101-2.156c0.793-0.479,1.669-0.718,2.628-0.718c1.463,0,2.619,0.44,3.463,1.321
		c0.843,0.879,1.265,2.288,1.265,4.225v11.326h-2.575V60.933c0-1.182-0.097-2.019-0.289-2.511s-0.505-0.874-0.943-1.144
		c-0.434-0.27-0.92-0.404-1.459-0.404c-1.117,0-2.027,0.391-2.73,1.174c-0.702,0.783-1.059,2.015-1.059,3.694v9.596h-2.571V60.606
		c0-1.368-0.236-2.333-0.713-2.892c-0.473-0.56-1.122-0.84-1.951-0.84c-1.179,0-2.112,0.422-2.797,1.268
		c-0.679,0.845-1.021,2.387-1.021,4.626v8.57H551.523z"/>
</g>
<g>
	<path fill="#FFFFFF" d="M177.156,169.609c1.946-1.296,3.693-2.88,5.24-4.749c1.544-1.867,2.76-3.789,3.648-5.758h-4.763
		c-1.063,0-2.179,0.062-3.348,0.192c0.079-1.041,0.117-1.671,0.117-1.893l-0.117-1.767c1.247,0.158,2.376,0.235,3.387,0.235h5.799
		c0.209,0,1.57-0.077,4.089-0.235c-1.767,3.635-3.322,6.476-4.671,8.527v1.438c1.038-0.442,1.971-0.962,2.803-1.56l4.476,6.347
		c-1.246,0.468-2.414,1.064-3.503,1.791c-0.208-0.703-0.389-1.238-0.544-1.617c-0.156-0.376-0.495-0.992-1.013-1.85
		c-0.52-0.852-0.831-1.363-0.935-1.518l-1.283-1.439v13.155c0,1.271,0.027,2.206,0.077,2.803l0.195,2.533
		c-0.991-0.106-1.583-0.15-1.773-0.135c-0.188,0.008-0.805,0.058-1.848,0.135c0.079-1.118,0.143-2.048,0.195-2.784
		c0.052-0.742,0.079-1.589,0.079-2.552v-10.819l-4.243,4.632c-0.727-0.881-1.181-1.401-1.362-1.555l-1.401-1.094L177.156,169.609z
		 M182.294,148.474c1.038-0.26,2.231-0.793,3.582-1.598l3.853,6.033c-1.272,0.496-2.478,1.064-3.62,1.714l-0.466-1.088
		c-0.546-1.249-1.299-2.481-2.259-3.699L182.294,148.474z M193.311,178.911h6.539v-16.424h-4.204c-1.297,0-2.595,0.063-3.894,0.192
		c0.052-0.521,0.084-0.915,0.098-1.179c0.013-0.266,0.025-0.497,0.038-0.694c0.014-0.192-0.032-0.805-0.136-1.825
		c1.505,0.183,2.816,0.275,3.931,0.275h4.166v-6.578c0-0.674-0.039-1.598-0.116-2.763l-0.195-2.918c1.619,0.177,2.968,0.177,4.048,0
		c-0.077,1.372-0.142,2.547-0.194,3.519c-0.053,0.973-0.079,1.696-0.079,2.163v6.578h4.478c0.726,0,2.036-0.093,3.931-0.275
		c-0.079,0.549-0.125,0.959-0.138,1.237c-0.014,0.285-0.025,0.568-0.039,0.862c-0.013,0.293-0.007,0.467,0.02,0.524l0.117,1.112
		c-1.297-0.154-2.479-0.23-3.541-0.23h-4.828v16.424h5.761c1.583,0,3.206-0.063,4.867-0.192c-0.079,0.554-0.131,0.978-0.157,1.271
		c-0.025,0.294-0.033,0.54-0.02,0.737c0.014,0.202,0.072,0.736,0.177,1.613c-1.661-0.13-3.271-0.197-4.828-0.197h-15.687
		c-1.609,0-3.269,0.067-4.981,0.197c0.05-0.424,0.084-0.747,0.097-0.973c0.013-0.227,0.025-0.491,0.038-0.799
		c0.014-0.304,0.02-0.502,0.02-0.579l-0.117-1.271C190.143,178.847,191.752,178.911,193.311,178.911z"/>
	<path fill="#FFFFFF" d="M216.606,161.172l0.778-0.273c3.062-1.068,6.116-2.985,9.167-5.75c3.05-2.763,5.234-5.35,6.559-7.766
		l0.701-1.28c1.246,0.727,2.62,1.348,4.126,1.867l-0.856,0.973c1.142,1.815,3.048,3.876,5.722,6.188
		c2.672,2.312,6.098,3.891,10.277,4.747l0.738,0.159c-0.675,0.549-1.181,1.084-1.518,1.609c-0.338,0.523-0.74,1.299-1.208,2.319
		l-1.05-0.51c-3.789-1.835-6.571-3.48-8.35-4.936c-1.776-1.454-3.127-2.739-4.048-3.857c-0.921-1.118-1.822-2.311-2.704-3.582
		c-1.817,2.08-3.347,3.747-4.593,5.003c-1.246,1.261-2.79,2.642-4.632,4.145c1.271,0.154,2.57,0.235,3.893,0.235h10.586
		c0.779,0,2.038-0.067,3.776-0.196c-0.077,0.525-0.124,0.904-0.135,1.141c-0.014,0.237-0.014,0.521,0,0.848
		c0.011,0.327,0.07,0.9,0.174,1.709c-1.557-0.183-2.829-0.27-3.815-0.27h-10.586c-1.195,0-2.504,0.087-3.932,0.27
		c0.052-0.52,0.091-0.929,0.117-1.218v-0.707c0-0.395,0-0.603,0-0.632l-0.117-1.141c-1.116,0.837-2.206,1.632-3.27,2.383
		c-1.064,0.747-1.699,1.213-1.907,1.392l-0.583,0.468C219.291,163.441,218.188,162.327,216.606,161.172z M222.522,167.625
		c0.882,0.052,1.543,0.077,1.984,0.077h20.319c0.26,0,2.206-0.093,5.84-0.27c-0.131,0.514-0.201,0.881-0.215,1.089
		c-0.013,0.206-0.013,0.479,0,0.818c0.014,0.337,0.032,0.543,0.057,0.62l0.158,1.247c-2.493-0.183-4.438-0.273-5.84-0.273h-11.639
		c0.649,0.543,1.375,1.049,2.181,1.516l-1.44,1.055c-0.674,0.491-1.543,1.224-2.607,2.196c-1.064,0.978-2.285,1.979-3.659,3.019
		l-1.089,0.856c4.514-0.183,9.535-0.442,15.063-0.779c-1.193-1.165-2.05-1.97-2.568-2.412l-1.363-1.132
		c1.116-0.568,2.141-1.242,3.075-2.023c3.141,3.14,6.176,6.188,9.108,9.149c-1.323,0.728-2.595,1.532-3.815,2.412l-0.583-0.934
		l-0.818-1.17l-0.739-1.089l-6.851,0.39c-5.682,0.337-9.245,0.597-10.685,0.781c-1.44,0.178-2.822,0.428-4.145,0.735
		c-0.079-0.438-0.175-0.904-0.293-1.399c-0.116-0.492-0.448-1.311-0.991-2.452c1.063-0.414,2.328-1.078,3.794-1.983
		c1.466-0.91,3.614-3.154,6.443-6.735h-6.696c-1.167,0-2.879,0.091-5.137,0.273c0.025-0.52,0.052-0.943,0.079-1.267
		c0.025-0.323,0.038-0.563,0.038-0.722l-0.038-0.622l-0.079-1.164C220.589,167.509,221.639,167.572,222.522,167.625z"/>
	<path fill="#FFFFFF" d="M259.208,164.86l0.779-0.972c1.063-1.349,2.133-2.938,3.209-4.767c1.079-1.831,1.876-3.419,2.397-4.772
		c0.52-1.348,0.951-2.527,1.292-3.539c0.343-1.012,0.562-1.714,0.66-2.104l0.33-1.286c1.279,0.68,2.517,1.248,3.711,1.714
		l-0.896,1.599c-0.052,0.077-0.856,1.723-2.414,4.94v21.446c0,1.69,0.025,2.909,0.079,3.66l0.194,3.428
		c-1.219-0.159-2.425-0.159-3.62,0c0.104-2.129,0.175-3.674,0.215-4.633c0.038-0.963,0.059-1.791,0.059-2.493v-15.375
		c-0.39,0.65-0.675,1.132-0.858,1.439l-1.322,2.374c-0.233,0.418-0.507,0.872-0.817,1.363l-0.507,0.818
		c-0.364-0.545-0.681-0.992-0.954-1.344C260.472,166.011,259.96,165.51,259.208,164.86z M268.977,172.063l0.973-0.351
		c2.621-0.935,5.15-2.402,7.59-4.4v-13.078c0-0.438-0.038-1.373-0.117-2.803l-0.195-3.423c0.601,0.077,1.217,0.119,1.846,0.135
		c0.632,0.014,1.377-0.034,2.241-0.135c-0.131,1.453-0.214,2.6-0.253,3.443c-0.04,0.842-0.058,1.756-0.058,2.743v10.2
		c1.271-1.426,2.303-2.674,3.093-3.738c0.792-1.063,1.629-2.301,2.51-3.716c0.883-1.416,1.48-2.446,1.792-3.096l0.661-1.362
		c1.115,0.856,2.297,1.637,3.542,2.335l-1.946,2.608l-2.102,2.88c-1.817,2.441-4.334,5.282-7.551,8.527v7.353
		c0,1.715,0.058,2.702,0.174,2.962c0.116,0.26,0.448,0.491,0.993,0.697c0.312,0.131,1.025,0.169,2.141,0.121l2.958,0.038
		c0.959-0.028,1.589-0.187,1.887-0.486c0.299-0.299,0.546-0.737,0.74-1.304c0.194-0.573,0.305-0.987,0.33-1.247l-0.077-2.023
		c0-0.183,0.064-0.273,0.193-0.273h0.041c0.104,0.027,0.362,0.385,0.778,1.072c0.414,0.684,1.466,1.276,3.153,1.768l-0.275,0.818
		c-0.388,1.17-0.674,2.004-0.854,2.514c-0.181,0.506-0.494,0.978-0.935,1.421c-0.441,0.438-1.05,0.736-1.83,0.896
		c-0.778,0.153-2.777,0.207-5.994,0.153c-2.651,0-4.337-0.125-5.059-0.37c-0.722-0.246-1.208-0.617-1.456-1.106
		c-0.25-0.497-0.375-1.378-0.375-2.649v-7.67c-1.557,1.146-3.374,2.312-5.449,3.505l-0.545,0.313
		c-0.337-0.805-0.681-1.431-1.032-1.869C270.165,173.022,269.651,172.554,268.977,172.063z"/>
	<path fill="#FFFFFF" d="M298.58,180.12l1.165-0.353c2.854-0.856,5.484-2.146,7.882-3.871c2.403-1.723,4.016-3.49,4.85-5.296
		c0.827-1.802,1.425-3.366,1.79-4.689c0.362-1.324,0.674-2.827,0.935-4.512h-8.798c-0.183,0-2.025,0.091-5.527,0.27
		c0.025-0.448,0.043-0.814,0.059-1.098c0.014-0.279,0.024-0.563,0.038-0.843c0.014-0.285,0.02-0.478,0.02-0.588l-0.116-1.521
		c3.115,0.183,4.945,0.274,5.489,0.274h9.144c0.054-0.597,0.092-1.166,0.121-1.715c0.023-0.543,0.048-1.439,0.077-2.682v-1.714
		c0-0.49,0-0.833,0-1.011l-0.077-3.659c1.064,0.129,1.81,0.202,2.238,0.212c0.424,0.014,1.122-0.058,2.081-0.212l-0.313,3.891
		c-0.077,0.674-0.139,1.56-0.192,2.648c-0.054,1.088-0.077,1.868-0.077,2.334l-0.038,1.907h9.534c0.312,0,2.104-0.092,5.373-0.274
		c-0.053,0.669-0.093,1.156-0.116,1.464c-0.028,0.309-0.048,0.568-0.062,0.784c-0.01,0.217,0.047,0.814,0.178,1.802
		c-2.596-0.179-4.334-0.27-5.215-0.27h-8.917c0.052,0.597,0.163,1.367,0.331,2.315c0.169,0.943,0.862,2.711,2.085,5.292
		c1.219,2.581,2.523,4.42,3.911,5.508c1.386,1.089,2.816,2.004,4.279,2.745c1.469,0.736,2.852,1.275,4.146,1.613l1.132,0.313
		c-1.869,0.911-3.024,1.801-3.467,2.687l-0.858,1.557l-1.011-0.742c-0.054-0.024-1.16-0.771-3.326-2.235
		c-2.168-1.469-4.056-3.298-5.663-5.488c-1.613-2.196-2.894-5.003-3.856-8.426c-0.232,0.827-0.429,1.574-0.583,2.233
		c-0.154,0.665-0.304,1.209-0.448,1.638c-0.145,0.428-0.447,1.088-0.915,1.983c-0.467,0.896-1.068,1.878-1.81,2.942
		c-0.737,1.064-1.729,2.079-2.976,3.052c-1.247,0.974-2.254,1.695-3.019,2.163c-0.767,0.467-2.433,1.371-4.999,2.725l-0.664,0.352
		c-0.231-0.365-0.559-0.856-0.973-1.482C301.005,181.521,300.058,180.847,298.58,180.12z"/>
	<path fill="#FFFFFF" d="M339.391,179.614l1.479,0.115c1.142,0.105,2.586-0.039,4.339-0.428c1.752-0.391,3.442-1.064,5.079-2.023
		c-1.246-0.312-2.166-0.533-2.765-0.664l-2.647-0.506l-1.632-0.347c1.247-2.079,1.883-3.13,1.907-3.153l0.741-1.439h-2.143
		c-0.781,0-1.846,0.077-3.193,0.23c0.054-0.485,0.092-0.866,0.116-1.146c0.028-0.274,0.034-0.502,0.019-0.684
		c-0.01-0.179-0.058-0.8-0.135-1.868c1.815,0.159,3.086,0.236,3.813,0.236h2.924c0.154-0.444,0.27-0.781,0.347-1.013l0.428-1.521
		l0.236-0.737c1.193,0.52,2.345,0.92,3.462,1.203l-1.011,2.067h4.708l3.506-0.236c-0.934,3.191-2.051,5.98-3.346,8.369l3.692,1.4
		c-0.804,0.702-1.569,1.646-2.292,2.841l-0.587-0.347c-1.012-0.573-1.945-1.064-2.803-1.482c-1.584,1.223-2.885,2.079-3.909,2.57
		c-1.026,0.491-2.364,0.991-4.012,1.497c-1.646,0.507-2.628,0.785-2.938,0.838l-0.543,0.115c-0.391-0.856-0.741-1.511-1.055-1.964
		C340.87,181.088,340.273,180.441,339.391,179.614z M339.661,164.004l1.248-0.583c1.218-0.572,2.229-1.219,3.033-1.945
		s1.69-1.661,2.647-2.802h-2.412c-0.495,0-1.637,0.076-3.429,0.23c0.054-0.395,0.093-0.702,0.121-0.924
		c0.023-0.218,0.029-0.4,0.02-0.545c-0.014-0.145-0.058-0.718-0.141-1.723c2.081,0.158,3.274,0.236,3.583,0.236h4.868v-4.787
		c0-0.703-0.029-1.377-0.081-2.027l-0.154-2.022c0.991,0.183,2.186,0.183,3.581,0c-0.077,0.829-0.148,1.594-0.212,2.297
		c-0.067,0.698-0.085,1.285-0.062,1.752v4.787h4.709l1.638-0.117l1.594-0.119c-0.077,0.496-0.121,0.856-0.135,1.088
		c-0.016,0.23-0.025,0.438-0.04,0.616c-0.014,0.183,0.044,0.679,0.175,1.487c-1.503-0.154-2.581-0.23-3.231-0.23h-4.709v3.269
		c0,0.131,0.038,0.583,0.119,1.364l0.154,1.477c-0.89-0.076-1.444-0.125-1.66-0.135c-0.213-0.014-0.843,0.029-1.884,0.135
		c0.131-1.401,0.198-2.349,0.198-2.841v-2.493c-1.869,2.493-3.958,4.699-6.27,6.62l-0.697,0.583
		c-0.184-0.313-0.391-0.637-0.626-0.974C341.375,165.342,340.725,164.783,339.661,164.004z M342.348,149.448
		c1.117-0.159,2.22-0.375,3.308-0.664l1.984,5.181c-1.088,0.23-2.139,0.491-3.149,0.775l-0.468-1.516
		c-0.183-0.492-0.601-1.455-1.247-2.88L342.348,149.448z M347.717,173.894l4.751,1.241c0.829-1.502,1.451-2.826,1.869-3.967h-5.022
		L347.717,173.894z M356.827,165.366c-1.117-1.401-1.791-2.22-2.021-2.45l-1.907-1.715c0.775-0.597,1.531-1.294,2.258-2.099
		l4.044,4.006C358.295,163.836,357.5,164.587,356.827,165.366z M353.987,154.388l0.389-0.776c0.545-1.092,1.011-2.218,1.401-3.384
		l0.428-1.286c0.906,0.52,1.869,0.906,2.88,1.166c-0.856,1.714-1.661,3.399-2.412,5.06
		C355.792,154.807,354.896,154.547,353.987,154.388z M355.739,180.861l0.775-0.158c0.779-0.154,2.089-0.637,3.934-1.44
		c1.844-0.804,3.646-2.1,5.412-3.892c-0.342-0.701-0.688-1.502-1.055-2.393c-0.361-0.896-0.674-1.993-0.934-3.294
		c-0.26-1.294-0.583-3.201-0.974-5.72l-1.011,2.023l-0.231,0.472c-0.756-0.833-1.661-1.522-2.726-2.065l0.583-0.974l0.78-1.246
		c0.361-0.622,0.795-1.613,1.301-2.977c0.505-1.362,0.973-2.989,1.4-4.887c0.429-1.893,0.723-3.607,0.877-5.138l0.158-1.671
		c1.348,0.52,2.789,0.896,4.319,1.126l-0.429,1.169l-0.505,1.671l-1.012,3.116h6.264c0.159,0,1.392-0.077,3.699-0.236
		c-0.078,0.52-0.121,0.91-0.135,1.17c-0.015,0.261-0.024,0.486-0.04,0.679c-0.014,0.198,0.044,0.775,0.175,1.734
		c-0.65-0.077-1.128-0.131-1.439-0.154l-1.051-0.039l-0.467-0.038c-0.207,2.72-0.409,4.911-0.602,6.559
		c-0.198,1.646-0.487,3.409-0.876,5.29c-0.391,1.883-1.132,3.925-2.22,6.131c0.751,0.856,1.713,1.656,2.878,2.398
		c1.171,0.735,2.298,1.274,3.386,1.611l1.055,0.353c-0.728,0.491-1.261,1.025-1.599,1.594c-0.337,0.573-0.674,1.219-1.012,1.944
		l-0.779-0.543c-1.58-1.088-2.658-1.85-3.231-2.277c-0.568-0.429-1.464-1.301-2.682-2.624c-1.508,1.4-2.846,2.449-4.011,3.148
		c-1.17,0.702-2.663,1.507-4.479,2.417l-0.697,0.347c-0.106-0.26-0.256-0.587-0.448-0.991
		C357.895,182.657,357.111,181.92,355.739,180.861z M363.639,162.525c0.775,0.077,1.594,0.092,2.452,0.038
		c-0.024,0.963-0.024,1.777,0,2.451c0.023,0.68,0.145,1.681,0.351,3.02c0.208,1.339,0.4,2.21,0.583,2.63l0.703,1.982
		c0.544-1.324,0.958-2.744,1.243-4.261c0.287-1.521,0.505-3.188,0.664-5.004c0.154-1.813,0.245-3.138,0.27-3.972l0.038-1.594h-4.474
		L363.639,162.525z"/>
	<path fill="#FFFFFF" d="M379.732,166.46c1.584-0.236,2.841-0.496,3.775-0.781l2.065-0.582v-7.126l-2.412-0.038
		c-0.703,0-1.652,0.067-2.842,0.196c0.049-0.418,0.097-0.751,0.135-1.001c0.039-0.25,0.063-0.472,0.077-0.664
		c0.016-0.193-0.058-0.675-0.212-1.45c1.165,0.131,2.114,0.193,2.842,0.193h2.412v-2.644c0-0.963-0.023-1.738-0.077-2.335
		l-0.198-2.418c1.176,0.131,1.894,0.188,2.148,0.178c0.254-0.014,0.891-0.071,1.901-0.178c-0.105,1.011-0.183,1.897-0.23,2.648
		c-0.053,0.751-0.083,1.455-0.083,2.104v2.644h1.99c0.697,0,1.517-0.063,2.45-0.193c-0.077,0.438-0.13,0.767-0.155,0.982
		c-0.027,0.217-0.047,0.442-0.057,0.685c-0.015,0.235,0.057,0.717,0.212,1.448c-0.934-0.129-1.753-0.196-2.45-0.196h-1.99v6.109
		c0.757-0.308,1.358-0.549,1.812-0.718c0.458-0.168,0.761-0.293,0.914-0.37l1.946-0.934c-0.102,0.467-0.159,0.809-0.174,1.03
		s-0.024,0.525-0.038,0.914c-0.015,0.391-0.006,0.583,0.02,0.583l0.153,1.171c-1.449,0.414-2.995,0.896-4.633,1.438v11.134
		c0,1.453-0.202,2.508-0.601,3.172c-0.404,0.659-2.331,1.175-5.778,1.536c-0.184-1.063-0.347-1.811-0.486-2.238
		c-0.146-0.429-0.448-1.084-0.914-1.965c0.88,0.183,1.655,0.26,2.335,0.236c0.597,0,1.073-0.131,1.438-0.391
		c0.361-0.26,0.545-0.896,0.545-1.906v-8.369c-1.431,0.544-2.88,1.126-4.358,1.748l-0.896,0.39
		c-0.052-0.621-0.111-1.214-0.179-1.772C380.079,168.178,379.938,167.417,379.732,166.46z M388.804,181.795l0.818-0.896
		c0.543-0.597,1.386-1.931,2.527-3.992c1.142-2.06,1.829-4.333,2.065-6.813c0.231-2.476,0.376-4.478,0.424-6.009
		c0.054-1.526,0.091-2.75,0.121-3.665v-4.232c0-1.198,0-1.983,0-2.349l-0.313-5.21c1.425,0.13,2.672,0.192,3.736,0.192h13.52
		c1.364,0,2.549-0.062,3.569-0.192c-0.106,0.775-0.164,1.367-0.174,1.768c-0.014,0.399-0.02,0.847-0.02,1.338v4.079
		c0,0.8,0.01,1.319,0.039,1.551l0.154,1.671c-1.142-0.106-2.311-0.169-3.506-0.198l-3.852-0.038l-0.077,4.155h5.721
		c0.943,0,2.162-0.077,3.659-0.236c-0.054,0.568-0.092,0.987-0.115,1.257c-0.029,0.275-0.05,0.506-0.058,0.699
		c-0.016,0.187,0.042,0.76,0.173,1.703c-1.449-0.129-2.672-0.192-3.659-0.192h-5.76l-0.115,3.891h3.615
		c1.064,0,2.24-0.062,3.53-0.192c-0.071,0.664-0.121,1.253-0.145,1.763c-0.024,0.511-0.034,0.943-0.034,1.3v6.809
		c0,0.64,0.024,1.267,0.077,1.883l0.155,2.027c-0.535-0.029-0.954-0.054-1.253-0.083c-0.298-0.023-1.142,0-2.523,0.083
		c0.054-0.65,0.077-1.132,0.077-1.444v-1.012h-9.065v1.362c0,0.391,0.038,0.805,0.115,1.247c-0.54-0.052-1.118-0.092-1.729-0.115
		c-0.612-0.028-1.305,0.01-2.085,0.115c0.047-0.962,0.101-1.772,0.154-2.427c0.053-0.654,0.077-1.227,0.077-1.708v-6.737
		c0-0.154-0.024-0.626-0.077-1.415l-0.115-1.647c1.251,0.131,2.426,0.192,3.524,0.192h2.195l0.076-3.891h-6.385
		c-0.36,3.063-0.684,5.35-0.973,6.872c-0.283,1.516-0.708,2.917-1.261,4.203c-0.559,1.285-1.382,2.938-2.476,4.96l-0.543,1.015
		c-0.698-0.52-1.233-0.856-1.594-1.015C390.657,182.064,389.92,181.92,388.804,181.795z M397.914,155.751h13.698v-3.699h-13.698
		V155.751z M397.914,162.954h6.341l0.077-3.973h-6.418V162.954z M402.118,178.483h9.065v-5.683h-9.065V178.483z"/>
	<path fill="#FFFFFF" d="M421.05,181.987l0.505-0.896c1.454-2.565,2.403-5.219,2.841-7.958c0.443-2.739,0.698-5.061,0.761-6.968
		c0.067-1.906,0.115-3.626,0.155-5.157c0.043-1.531,0.052-2.614,0.043-3.25c-0.016-0.636-0.049-1.867-0.101-3.693l-0.117-2.904
		c2.234,0.207,3.921,0.308,5.061,0.308h9.496c-0.568-1.372-1.151-2.604-1.748-3.697c1.791-0.208,3.24-0.521,4.358-0.936l0.934,4.632
		h8.406c1.013,0,2.663-0.101,4.945-0.308c-0.077,0.505-0.125,0.88-0.135,1.118c-0.015,0.236-0.028,0.505-0.038,0.809
		c-0.014,0.298-0.01,0.476,0.02,0.524l0.153,1.363c-1.945-0.183-3.596-0.275-4.945-0.275h-22.809
		c-0.023,0.804-0.033,1.417-0.02,1.831c0.015,0.414,0.02,0.702,0.02,0.856c-0.023,1.219-0.081,2.972-0.174,5.253
		c-0.091,2.287-0.202,4.353-0.331,6.212c-0.131,1.854-0.347,3.55-0.641,5.08c-0.299,1.531-0.703,3.159-1.209,4.882
		c-0.505,1.725-0.93,3.001-1.267,3.813c-0.337,0.818-0.505,1.253-0.505,1.306l-0.27,0.818
		C423.375,183.664,422.244,182.739,421.05,181.987z M428.485,177.823c2.075,0.206,3.736,0.313,4.983,0.313h10.12l0.506-1.055
		c0.598-1.296,1.484-3.482,2.668-6.559c1.179-3.072,2.325-6.61,3.442-10.608l0.391-1.401c1.271,0.68,2.57,1.249,3.891,1.715
		l-1.671,3.891l-1.946,4.868c-1.352,3.322-2.662,6.37-3.933,9.149h4.319c1.637,0,3.359-0.107,5.181-0.313
		c-0.083,0.61-0.126,1.068-0.141,1.377c-0.014,0.308-0.023,0.573-0.038,0.785c-0.015,0.216,0.048,0.871,0.179,1.965
		c-2.081-0.208-3.805-0.313-5.181-0.313h-17.787c-1.166,0-2.827,0.105-4.983,0.313c0.052-0.506,0.091-0.916,0.119-1.239
		c0.024-0.321,0.029-0.563,0.02-0.726C428.61,179.827,428.561,179.103,428.485,177.823z M430.704,162.525
		c1.171-0.283,2.22-0.65,3.154-1.088l4.825,12.374c-1.089,0.212-2.36,0.612-3.813,1.209l-0.192-1.17
		c-0.107-0.568-0.4-1.72-0.878-3.442c-0.48-1.725-1.382-4.069-2.706-7.026L430.704,162.525z M438.568,158.827
		c1.116-0.206,2.271-0.506,3.467-0.895l2.759,12.688c-1.296,0.212-2.543,0.404-3.737,0.587l-0.076-0.896
		c-0.077-0.597-0.309-2.036-0.699-4.323c-0.389-2.283-0.896-4.46-1.521-6.539L438.568,158.827z"/>
	<path fill="#FFFFFF" d="M461.51,180.12l0.934-0.818c1.064-0.936,1.907-2.148,2.533-3.641c0.622-1.487,1.084-3.101,1.382-4.835
		c0.299-1.732,0.458-4.997,0.487-9.798v-3.66c0-2.836-0.029-4.776-0.077-5.826l-0.198-3.457c2.052,0.183,3.453,0.27,4.204,0.27
		h19.173c0.545,0,1.956-0.087,4.224-0.27c-0.077,0.89-0.145,1.679-0.198,2.378c-0.052,0.694-0.077,1.251-0.077,1.671v26.776
		c0,1.041-0.048,1.767-0.139,2.181c-0.092,0.414-0.442,0.911-1.055,1.479c-0.611,0.573-2.51,1.04-5.696,1.401
		c-0.024-0.206-0.028-0.375-0.02-0.506c0.015-0.13,0.01-0.529-0.019-1.203c-0.024-0.68-0.775-1.791-2.26-3.352
		c1.691,0.414,3.116,0.626,4.286,0.626c0.598,0.024,0.982-0.101,1.165-0.37c0.184-0.275,0.275-0.892,0.275-1.85v-7.203h-8.604v7.434
		c0,0.886,0.023,1.638,0.077,2.259l0.159,2.065c-1.536-0.158-2.851-0.158-3.935,0c0.053-0.856,0.105-1.599,0.158-2.22
		c0.048-0.62,0.077-1.324,0.077-2.104v-7.434h-8.566c-0.283,1.82-0.634,3.505-1.049,5.061c-0.414,1.561-1.05,3.116-1.906,4.67
		l-0.974,1.677c-0.39,0.674-0.611,1.063-0.664,1.165l-0.467,0.702c-0.438-0.751-0.887-1.348-1.344-1.791
		C462.946,181.155,462.315,180.664,461.51,180.12z M470,166.884h8.368v-6.033h-8.253L470,166.884z M470.192,158.129h8.176v-6.542
		h-8.137L470.192,158.129z M481.831,158.129h8.604v-6.542h-8.604V158.129z M481.831,166.884h8.604v-6.033h-8.604V166.884z"/>
	<path fill="#FFFFFF" d="M502.988,171.13c0.023-0.51,0.048-0.914,0.077-1.213c0.023-0.3,0.038-0.529,0.038-0.694l-0.038-0.654
		l-0.077-1.256c3.736,0.182,5.773,0.273,6.11,0.273h9.417V152.64h-7.9c-0.987,0-2.635,0.077-4.945,0.23
		c0.053-0.505,0.091-0.904,0.12-1.204c0.024-0.293,0.028-0.529,0.021-0.703c-0.016-0.178-0.06-0.785-0.141-1.83
		c2.104,0.184,3.779,0.275,5.022,0.275h18.644c1.377,0,3.207-0.091,5.488-0.275c-0.076,0.559-0.115,0.973-0.115,1.243v0.688
		c-0.023,0.458-0.023,0.684,0,0.684l0.115,1.122c-1.164-0.024-2.243-0.072-3.23-0.135c-0.987-0.062-1.671-0.096-2.06-0.096h-7.55
		v14.945h10.077c0.313,0,2.128-0.092,5.45-0.273c-0.105,0.563-0.164,1.059-0.173,1.482c-0.016,0.418,0.042,1.199,0.173,2.335
		c-2.749-0.212-4.517-0.313-5.292-0.313h-10.235v8.798c0,1.063,0.023,1.892,0.075,2.49l0.194,2.531
		c-0.685-0.028-1.233-0.058-1.647-0.101c-0.414-0.038-1.199-0.005-2.36,0.101c0.077-1.116,0.141-2.031,0.194-2.743
		c0.052-0.718,0.075-1.475,0.075-2.278v-8.798h-9.379C508.203,170.816,506.151,170.918,502.988,171.13z M507.499,156.883
		c1.094-0.183,2.389-0.597,3.896-1.247l3.736,9.692c-1.3,0.283-2.557,0.674-3.775,1.17l-0.236-1.401
		c-0.101-0.467-0.395-1.474-0.876-3.02s-1.136-2.913-1.964-4.106L507.499,156.883z M524.901,165.328l0.972-1.594
		c1.532-2.519,2.635-4.868,3.309-7.05l0.43-1.401c1.477,0.936,2.71,1.585,3.696,1.95l-0.702,1.243l-1.088,1.829
		c-0.521,0.857-0.973,1.69-1.363,2.495l-0.973,1.982l-0.934,1.792C527.106,165.978,525.99,165.564,524.901,165.328z"/>
	<path fill="#FFFFFF" d="M544.536,160.421c1.556-0.413,2.947-0.978,4.166-1.689c1.218-0.713,2.759-2.22,4.612-4.517
		c1.854-2.297,3.145-4.155,3.871-5.585l0.974-1.907c0.572,0.39,1.001,0.655,1.284,0.799c0.285,0.14,1.171,0.448,2.649,0.916
		l-0.973,1.243c-1.896,2.416-3.486,4.295-4.767,5.643c-1.286,1.353-2.928,2.976-4.926,4.868l18.215-0.66
		c-0.727-0.703-1.999-1.868-3.813-3.504l-1.791-1.595c1.348-0.779,2.388-1.56,3.115-2.335l10.468,10.705
		c-1.219,0.934-2.283,1.867-3.193,2.801l-0.697-1.132c-0.26-0.389-0.818-1.034-1.675-1.944l-1.907,0.038
		c-1.479,0.054-5.248,0.246-11.306,0.583c-6.063,0.337-10.439,0.717-13.136,1.132c-0.13-0.573-0.251-1.073-0.352-1.497
		C545.25,162.352,544.98,161.568,544.536,160.421z M547.806,184.285c0.077-0.987,0.129-1.753,0.154-2.298
		c0.028-0.543,0.042-1.294,0.042-2.243v-7.762c0-1.243-0.014-2.032-0.042-2.373l-0.154-2.337c1.584,0.131,3.13,0.198,4.637,0.198
		h16.492c1.43,0,2.965-0.067,4.603-0.198c-0.106,1.055-0.164,1.869-0.179,2.433c-0.014,0.568-0.02,1.329-0.02,2.277v6.572
		c0,1.455,0.016,2.351,0.039,2.691l0.159,2.571c-1.103-0.076-1.752-0.125-1.95-0.135c-0.198-0.015-0.795,0.029-1.786,0.135
		c0.023-0.442,0.044-0.727,0.058-0.856c0.01-0.131,0.02-0.545,0.02-1.247v-0.468H551.35l-0.039,0.934
		c-0.028,0.367-0.028,0.612,0,0.743l0.116,1.362c-1.013-0.077-1.637-0.125-1.869-0.135
		C549.323,184.135,548.74,184.179,547.806,184.285z M551.465,178.015h18.413v-7.314h-18.413V178.015z"/>
</g>
</svg>
