<?xml version="1.0" standalone="no"?><!DOCTYPE svg PUBLIC "-//W3C//DTD SVG 1.1//EN" "http://www.w3.org/Graphics/SVG/1.1/DTD/svg11.dtd"><svg t="1524810140124" class="icon" style="" viewBox="0 0 1024 1024" version="1.1" xmlns="http://www.w3.org/2000/svg" p-id="10558" xmlns:xlink="http://www.w3.org/1999/xlink" width="200" height="200"><defs><style type="text/css"></style></defs><path d="M973.304669 0.043688H153.982248a35.093355 35.093355 0 0 0-36.764467 32.944782v70.186711h752.955395a34.615895 34.615895 0 0 1 36.525737 32.944783v784.706526h66.605756a35.093355 35.093355 0 0 0 36.525738-32.944783V32.98847A35.093355 35.093355 0 0 0 973.304669 0.043688z" fill="#FFD215" p-id="10559"></path><path d="M14.086287 317.077538V990.77447a34.854625 34.854625 0 0 0 36.525737 33.183513h819.561152a34.854625 34.854625 0 0 0 36.525737-33.183513V303.23118l-426.133602 214.857278z" fill="#F98232" p-id="10560"></path><path d="M870.173176 103.175181H50.850755A34.615895 34.615895 0 0 0 14.086287 136.119964v180.957574l466.240294 200.055999 426.133602-214.857278v-167.111216a34.615895 34.615895 0 0 0-36.287007-31.989862z" fill="#FFA35F" p-id="10561"></path><path d="M380.059851 824.618175s-81.884496-73.290205 29.841289-231.090939a123.42357 123.42357 0 0 1 29.841288 45.836219s49.655904-38.43558 39.867962-137.986118a267.855407 267.855407 0 0 1 86.897832 323.002108s255.918891-73.290205 47.746062-392.472628a132.734052 132.734052 0 0 1-20.053346 59.443847s-14.801279-148.967713-221.064266-223.45157c0 0 77.826081 153.264858-44.642568 265.706835a419.687883 419.687883 0 0 0-34.138434-63.740993 227.509985 227.509985 0 0 1-50.372095 109.815942c-22.201919 28.408907-58.727656 214.857278 136.553737 244.698567z" fill="#FFFFFF" p-id="10562"></path></svg>